<svg width="280" height="162" viewBox="0 0 280 162" fill="none" xmlns="http://www.w3.org/2000/svg">
<rect width="280" height="162" rx="5" fill="#F5F7FA"/>
<path d="M135.859 60.0609C138.597 59.563 141.403 59.563 144.141 60.0609C156.445 62.298 164.748 73.9029 162.893 86.2703L162.872 86.4111C159.124 86.6078 156.146 89.7088 156.146 93.5054V98.6721C156.146 102.596 159.326 105.776 163.25 105.776C167.173 105.776 170.354 102.596 170.354 98.6721V93.5054C170.354 90.8164 168.861 88.4792 166.661 87.2726L166.725 86.8451C168.89 72.4075 159.198 58.86 144.834 56.2484C141.638 55.6672 138.362 55.6672 135.166 56.2484C120.802 58.86 111.109 72.4075 113.275 86.8451L113.339 87.2726C111.139 88.4792 109.646 90.8164 109.646 93.5054V98.6721C109.646 102.596 112.826 105.776 116.75 105.776C120.673 105.776 123.854 102.596 123.854 98.6721V93.5054C123.854 89.7088 120.876 86.6078 117.128 86.4111L117.107 86.2703C115.252 73.9029 123.555 62.298 135.859 60.0609Z" fill="#A7BEE1"/>
</svg>
