<svg width="679" height="530" viewBox="0 0 679 530" fill="none" xmlns="http://www.w3.org/2000/svg">
<rect x="1" y="350" width="670" height="167" rx="10" fill="#F5F7FA"/>
<path d="M180.247 82.5978L144.317 53.9999L180.247 57.4781V82.5978Z" fill="#EFF3F9"/>
<path d="M125 146.75V129.746L138.522 136.316L125 146.75Z" fill="#EFF3F9"/>
<path d="M228.154 203.946L217.723 186.942L236.267 192.352L228.154 203.946Z" fill="#EFF3F9"/>
<path d="M236.267 170.324L248.63 186.942L259.061 160.662L236.267 170.324Z" fill="#EFF3F9"/>
<path d="M548.091 40.4021L545 69H587.884L548.091 40.4021Z" fill="#EFF3F9"/>
<path d="M369.17 181.918L354.102 166.846H377.283L369.17 181.918Z" fill="#EFF3F9"/>
<path d="M526.069 310.814L514.092 330.91H545L526.069 310.814Z" fill="#EFF3F9"/>
<path d="M430.598 233.703L425.962 242.592L416.69 229.452L430.598 233.703Z" fill="#EFF3F9"/>
<path d="M489.284 137.443V349.491H186.916V137.443C186.914 134.634 187.465 131.852 188.539 129.256C189.614 126.66 191.189 124.301 193.175 122.314C195.162 120.328 197.521 118.752 200.117 117.678C202.713 116.604 205.495 116.053 208.304 116.055H467.895C473.568 116.055 479.008 118.308 483.019 122.319C487.03 126.33 489.284 131.771 489.284 137.443Z" stroke="#D6E2F5" stroke-width="2.84255" stroke-linecap="round" stroke-linejoin="round"/>
<path d="M489.284 137.443V138.397H186.916V137.443C186.914 134.634 187.465 131.852 188.539 129.256C189.614 126.66 191.189 124.301 193.175 122.314C195.162 120.328 197.521 118.752 200.117 117.678C202.713 116.604 205.495 116.053 208.304 116.055H467.895C473.568 116.055 479.008 118.308 483.019 122.319C487.03 126.33 489.284 131.771 489.284 137.443Z" stroke="#D6E2F5" stroke-width="2.84255" stroke-linecap="round" stroke-linejoin="round"/>
<path d="M448.36 127.234C448.36 128.006 448.132 128.76 447.703 129.401C447.274 130.042 446.665 130.542 445.953 130.837C445.24 131.132 444.456 131.21 443.7 131.059C442.943 130.909 442.248 130.537 441.703 129.992C441.157 129.446 440.786 128.752 440.635 127.995C440.485 127.239 440.562 126.454 440.857 125.742C441.153 125.029 441.652 124.42 442.294 123.992C442.935 123.563 443.689 123.334 444.46 123.334C445.495 123.334 446.487 123.745 447.218 124.477C447.949 125.208 448.36 126.2 448.36 127.234Z" fill="#D6E2F5"/>
<path d="M461.05 127.234C461.05 128.006 460.821 128.76 460.392 129.401C459.964 130.042 459.355 130.542 458.642 130.837C457.93 131.132 457.146 131.21 456.389 131.059C455.633 130.909 454.938 130.537 454.392 129.992C453.847 129.446 453.475 128.752 453.325 127.995C453.174 127.239 453.252 126.454 453.547 125.742C453.842 125.029 454.342 124.42 454.983 123.992C455.625 123.563 456.379 123.334 457.15 123.334C458.184 123.334 459.176 123.745 459.907 124.477C460.639 125.208 461.05 126.2 461.05 127.234Z" fill="#D6E2F5"/>
<path d="M473.735 127.234C473.735 128.006 473.507 128.76 473.078 129.401C472.649 130.042 472.04 130.542 471.328 130.837C470.615 131.132 469.831 131.21 469.075 131.059C468.318 130.909 467.623 130.537 467.078 129.992C466.532 129.446 466.161 128.752 466.01 127.995C465.86 127.239 465.937 126.454 466.232 125.742C466.528 125.029 467.027 124.42 467.669 123.992C468.31 123.563 469.064 123.334 469.835 123.334C470.87 123.334 471.862 123.745 472.593 124.477C473.324 125.208 473.735 126.2 473.735 127.234Z" fill="#D6E2F5"/>
<path d="M193.363 229.635C192.583 220.761 231.737 203.966 238.168 216.931L225.446 229.635C225.446 229.635 198.979 240.087 193.363 229.635Z" fill="#A7BEE1"/>
<path d="M212.554 166.233C206.834 148.554 206.435 146.387 210.231 145.018C214.027 143.648 223.698 163.789 224.79 166.233C228.615 173.969 231.562 182.108 233.578 190.499C235.311 198.333 237.478 216.394 237.842 220.744C239.333 239.099 209.07 244.663 207.752 230.398C206.435 216.134 206.297 211.506 206.297 211.506C206.297 211.506 190.697 212.996 188.496 201.314C187.122 192.179 186.594 182.936 186.919 173.703C186.919 173.703 163.173 169.769 164.022 163.512C164.872 157.255 211.323 169.907 211.323 169.907L212.554 166.233Z" fill="#FEBD9D"/>
<path d="M186.919 173.703C186.919 173.703 163.173 169.769 164.022 163.512C164.872 157.255 211.323 169.907 211.323 169.907L212.554 166.233C206.834 148.554 206.435 146.387 210.231 145.018C214.027 143.648 223.698 163.789 224.79 166.233" stroke="#F4A789" stroke-width="1.05729" stroke-linecap="round" stroke-linejoin="round"/>
<path d="M211.289 169.907C209.279 177.718 209.622 185.95 212.277 193.566" stroke="#F4A789" stroke-width="1.05729" stroke-linecap="round" stroke-linejoin="round"/>
<path d="M200.16 156.37C203.887 158.312 206.816 158.728 207.925 153.424C209.034 148.12 203.887 147.947 202.153 148.224C199.502 148.657 198.566 155.521 200.16 156.37Z" fill="#063F6A"/>
<path d="M200.906 154.984C200.074 157.827 199.467 161.38 199.485 161.276C200.109 161.588 203.679 162.818 204.234 161.588C204.792 159.419 205.186 157.212 205.412 154.984H200.906Z" fill="#063F6A"/>
<path d="M197.542 163.044C195.583 171.71 185.53 219.479 185.201 221.039C184.872 222.599 185.305 229.809 185.929 230.086C186.553 230.364 190.02 225.199 191.32 222.581C192.62 219.964 203.886 167.602 204.596 165.158C206.33 159.213 198.825 157.359 197.542 163.044Z" fill="#063F6A"/>
<path d="M188.686 190.135C183.816 191.261 182.429 195.906 186.034 198.991C189.899 202.302 199.415 200.725 199.9 196.582C200.386 192.44 192.742 189.199 188.686 190.135Z" fill="#FEBD9D" stroke="#F4A789" stroke-width="1.05729" stroke-linecap="round" stroke-linejoin="round"/>
<path d="M188.286 182.508C183.294 181.78 182.064 186.72 185.634 190.62C189.205 194.52 200.974 195.317 201.632 190.759C202.291 186.2 191.319 182.959 188.286 182.508Z" fill="#FEBD9D" stroke="#F4A789" stroke-width="1.05729" stroke-linecap="round" stroke-linejoin="round"/>
<path d="M183.832 173.98C190.107 172.49 203.695 181.711 203.158 184.571C202.5 188.158 196.104 188.713 187.004 184.848C178.476 181.243 180.747 174.708 183.832 173.98Z" fill="#FEBD9D" stroke="#F4A789" stroke-width="1.05729" stroke-linecap="round" stroke-linejoin="round"/>
<mask id="mask0_1_2" style="mask-type:alpha" maskUnits="userSpaceOnUse" x="185" y="135" width="304" height="215">
<rect x="185.406" y="135.935" width="303.454" height="214.035" fill="#C4C4C4"/>
</mask>
<g mask="url(#mask0_1_2)">
<path d="M486.049 243.189C466.567 242.236 450.43 259.829 445.439 280.021C445.283 280.576 445.161 281.2 445.04 281.858C444.503 284.968 444.133 288.104 443.931 291.253C441.851 317.91 443.809 370.983 443.931 372.161C444.017 372.595 430.065 372.161 410.912 371.26C403.84 370.931 396.023 370.567 387.912 370.151C346.591 368.123 297.522 365.384 297.522 365.384L294.558 332.262C294.558 332.262 288.37 342.661 267.242 363.131C246.113 383.601 212.297 372.161 215.937 346.492C218.208 330.372 227.741 318.569 239.267 298.844C242.733 292.726 246.581 285.862 250.377 277.872C255.421 267.247 260.343 257.073 265.041 247.938C267.103 243.9 269.131 240.069 271.09 236.447C278.508 222.772 285.164 212.407 290.52 207.571C306.622 193.011 341.096 201.4 350.282 204.347C363.992 208.803 378.217 211.483 392.609 212.32C412.992 213.741 443.931 222.529 460.327 228.231C469.804 231.406 478.529 236.491 485.962 243.172L486.049 243.189Z" fill="#D7E3F6"/>
<path d="M499.758 273.452C481.923 255.548 454.832 247.73 427.655 271.962C396.04 300.127 371.774 305.015 336.208 263.884C310.486 234.142 301.542 226.55 271.158 236.447C278.577 222.771 285.232 212.407 290.588 207.571C306.69 193.011 341.165 201.4 350.351 204.347C364.061 208.803 378.286 211.483 392.677 212.32C413.06 213.741 443.999 222.529 460.396 228.231C469.873 231.406 478.598 236.491 486.031 243.172C493.05 248.788 497.21 260.037 499.758 273.452Z" fill="#D7E3F6"/>
<path d="M264.556 324.635C253.238 336.959 242.977 310.214 239.303 298.844C242.769 292.726 246.617 285.862 250.413 277.872C255.457 267.247 260.379 257.073 265.076 247.938C273.448 260.747 262.13 272.481 261.333 278.288C259.357 293.783 280.884 306.939 264.556 324.635Z" fill="#A7BEE1"/>
<path d="M193.371 229.635C210.912 233.327 238.176 216.93 238.176 216.93C238.176 216.93 253.203 283.99 257.12 298.862C261.038 313.733 286.135 371.988 237.24 374.38C205.868 375.905 203.753 316.264 201.916 296.626C200.079 276.988 193.371 229.635 193.371 229.635Z" fill="#D7E3F6"/>
<path d="M205.002 237.296C218.504 238.25 233.549 229.167 233.549 229.167" stroke="#A7BEE1" stroke-width="1.05729" stroke-linecap="round" stroke-linejoin="round"/>
<path d="M238.176 216.93C238.176 216.93 253.203 283.99 257.12 298.862C259.27 306.973 267.711 327.998 267 345.816" stroke="#A7BEE1" stroke-width="1.05729" stroke-linecap="round" stroke-linejoin="round"/>
<path d="M336.211 215.301C344.877 231.542 368.172 247.141 396.182 225.597C396.182 225.597 399.198 216.653 398.886 216.653C398.574 216.653 340.18 209.582 340.18 209.582L336.211 215.301Z" fill="#0769B4"/>
<path d="M359.261 195.161C352.05 193.532 341.581 195.351 334.371 206.427C327.161 217.503 326.242 226.654 326.658 226.55C327.074 226.446 337.942 219.617 342.916 220.05C348.282 220.962 353.585 222.213 358.793 223.794L359.261 195.161Z" fill="white"/>
<path d="M391.778 198.402C391.778 198.402 407.724 198.506 409.873 209.686C412.022 220.865 406.112 234.263 398.884 240.468C391.656 246.673 395.643 231.525 369.73 224.418L391.778 198.402Z" fill="white"/>
<path d="M399.561 211.471C399.561 211.471 390.704 224.938 370.962 225.25C351.22 225.562 347.424 213.776 347.424 213.776C349.556 208.438 352.138 197.05 353.785 189.06C354.825 184.016 355.518 180.393 355.518 180.393C355.518 180.393 358.777 148.779 392.68 150.685L393.251 155.885L399.561 211.471Z" fill="#FEBD9D"/>
<path d="M353.783 189.302C354.823 184.259 355.517 180.636 355.517 180.636L374.808 171.589C374.808 171.589 377.858 193.618 353.783 189.302Z" fill="#F4A789"/>
<path d="M294.612 332.262C291.891 301.063 291.891 275.896 291.891 275.896" stroke="#A7BEE1" stroke-width="1.05729" stroke-linecap="round" stroke-linejoin="round"/>
</g>
<path d="M423.407 407.988C421.754 407.383 420.178 406.586 418.71 405.614C408.83 399.097 407.981 386.392 410.98 371.261C413.302 359.665 417.913 346.648 422.367 333.891C427.463 319.349 432.455 305.154 433.859 293.801C434.067 292.206 434.188 290.681 434.24 289.225C434.496 280.505 436.092 271.877 438.972 263.642C447.118 240.711 464.971 226.273 486.03 243.172C492.963 248.771 497.192 260.02 499.74 273.435C500.659 278.219 501.369 283.28 501.959 288.445C503.9 306.003 504.16 324.844 505.026 338.935C509.273 407.052 492.963 434.23 423.407 407.988Z" fill="#D7E3F6"/>
<path d="M499.756 273.453C484.417 258.044 462.179 250.105 438.97 263.642C447.117 240.711 464.969 226.273 486.028 243.172C493.048 248.788 497.208 260.037 499.756 273.453Z" fill="#D7E3F6"/>
<path d="M443.997 372.162C444.083 372.595 430.131 372.162 410.978 371.261C403.906 370.931 396.089 370.567 387.978 370.151C374.112 363.894 365.445 354.847 372.846 341.882C392.987 306.645 430.044 355.471 431.916 320.528C433.216 296.592 439.022 291.409 443.927 291.253C441.848 317.911 443.806 370.949 443.997 372.162Z" fill="#A7BEE1"/>
<path d="M448.729 269.622C445.975 276.527 444.353 283.832 443.928 291.253C442.073 317.928 443.807 370.983 443.928 372.162" stroke="#A7BEE1" stroke-width="1.05729" stroke-linecap="round" stroke-linejoin="round"/>
<path d="M423.406 407.988C421.753 407.383 420.176 406.586 418.709 405.614C434.637 409.08 458.452 412.114 468.973 403.153C485.526 389.061 475.005 371.001 484.157 361.052C493.308 351.103 506.499 347.896 501.975 288.515C503.916 306.073 504.176 324.913 505.043 339.005C509.272 407.053 492.962 434.23 423.406 407.988Z" fill="#A7BEE1"/>
<path d="M383.538 288.48C386.068 277.092 371.786 277.612 371.786 277.612C373.051 267.109 359.151 264.214 355.944 274.441C344.66 270.974 341.09 274.441 339.443 280.386L383.538 288.48Z" fill="#D6E2F5"/>
<path d="M364.284 278.705C366.151 278.705 367.664 277.191 367.664 275.325C367.664 273.458 366.151 271.945 364.284 271.945C362.418 271.945 360.904 273.458 360.904 275.325C360.904 277.191 362.418 278.705 364.284 278.705Z" fill="#F9F9F9" stroke="#D6E2F5" stroke-width="1.42128" stroke-linecap="round" stroke-linejoin="round"/>
<path d="M317.987 271.962L296.91 386.253L380.609 403.153L403.09 288.705L317.987 271.962Z" fill="#F9F9F9" stroke="#D6E2F5" stroke-width="1.42128" stroke-linecap="round" stroke-linejoin="round"/>
<path d="M343.777 347.688C339.496 358.816 339.253 370.498 341.212 374.415C341.212 374.415 349.202 375.888 357.175 354.24L343.777 347.688Z" fill="#A7BEE1"/>
<path d="M354.679 326.23C335.526 319.661 326.375 315.675 322.925 314.739C319.476 313.803 307.014 312.763 305.021 314.739C304.141 315.685 303.54 316.856 303.283 318.122C303.026 319.388 303.124 320.7 303.565 321.915C304.223 324.566 302.109 326.49 301.832 329.177C301.554 331.864 304.761 332.644 304.085 335.313C303.409 337.982 301.312 340.876 302.767 343.806C304.223 346.735 301.312 349.768 304.085 353.356C306.858 356.944 335.093 358.66 341.281 357.342L353.413 362.768C353.413 362.768 374.819 340.703 354.679 326.23Z" fill="#FEBD9D"/>
<path d="M322.857 314.687C319.39 313.768 306.946 312.711 304.952 314.687C304.073 315.633 303.472 316.804 303.215 318.07C302.958 319.336 303.055 320.648 303.496 321.863C304.155 324.515 302.04 326.439 301.763 329.125C301.486 331.812 304.692 332.592 304.016 335.261C303.34 337.93 301.243 340.825 302.699 343.754C304.155 346.683 301.243 349.716 304.016 353.304" stroke="#F4A789" stroke-width="1.05729" stroke-linecap="round" stroke-linejoin="round"/>
<path d="M469.077 403.153C464.103 412.148 451.623 416.499 427.964 409.34C421.568 407.416 415.398 405.406 409.505 403.378C399.729 400.033 390.716 396.601 382.639 393.325C368.553 387.723 354.761 381.405 341.318 374.398C344.862 370.458 347.721 365.953 349.777 361.069C351.068 358.17 352.129 355.174 352.949 352.108C355.158 343.628 355.746 334.807 354.682 326.109C357.906 327.08 361.372 328.062 365.081 329.056C373.904 331.465 383.783 333.978 393.802 336.613C423.822 344.516 455.038 353.581 462.647 364.847C463.34 365.87 463.999 366.927 464.623 368.002C464.865 368.418 465.125 368.851 465.351 369.285C465.421 369.396 465.484 369.512 465.541 369.631C465.819 370.134 466.096 370.671 466.356 371.191C466.83 372.104 467.263 373.023 467.656 373.947C472.006 384.26 473.272 395.422 469.077 403.153Z" fill="#D7E3F6"/>
<path d="M354.68 326.231C389.05 336.63 451.378 348.399 462.575 364.969C464.51 367.848 466.186 370.894 467.584 374.069" stroke="#A7BEE1" stroke-width="1.05729" stroke-linecap="round" stroke-linejoin="round"/>
<path d="M364.941 329.125C367.073 350.67 355.945 371.347 355.945 371.347" stroke="#A7BEE1" stroke-width="1.05729" stroke-linecap="round" stroke-linejoin="round"/>
<path d="M468.971 403.152C463.996 412.148 451.517 416.498 427.858 409.34C421.462 407.416 415.292 405.406 409.398 403.378C423.247 407.035 456.075 414.141 468.971 403.152Z" fill="#A7BEE1"/>
<path d="M392.671 150.876L393.26 156.076C381.249 174.777 364.852 180.636 355.51 180.636C340.084 176.788 334.815 162.905 333.913 148.016C333.682 144.449 333.67 140.872 333.879 137.304C334.604 127.2 336.347 117.195 339.079 107.44C339.079 107.44 385.409 85.8784 388.615 129.158C388.615 129.158 398.547 127.425 400.401 138.396C401.84 147.513 392.671 150.876 392.671 150.876Z" fill="#FEBD9D"/>
<path d="M341.316 137.357C342.34 137.357 343.17 136.526 343.17 135.502C343.17 134.478 342.34 133.648 341.316 133.648C340.291 133.648 339.461 134.478 339.461 135.502C339.461 136.526 340.291 137.357 341.316 137.357Z" fill="#063F6A"/>
<path d="M354.212 134.999C355.236 134.999 356.067 134.169 356.067 133.145C356.067 132.12 355.236 131.29 354.212 131.29C353.188 131.29 352.357 132.12 352.357 133.145C352.357 134.169 353.188 134.999 354.212 134.999Z" fill="#063F6A"/>
<path d="M351.387 123.196C351.595 125.709 360.227 126.663 360.712 125.259C361.457 123.092 350.936 117.268 351.387 123.196Z" fill="#063F6A"/>
<path d="M334.936 126.905C334.936 128.274 344.33 128.915 343.983 124.062C343.758 120.613 335.144 123.161 334.936 126.905Z" fill="#063F6A"/>
<path d="M386.104 142.834C389.969 137.114 396.087 137.738 396.728 138.83" stroke="#F4A789" stroke-width="1.05729" stroke-linecap="round" stroke-linejoin="round"/>
<path d="M387.748 140.875C393.45 137.53 396.553 145.035 389.343 145.035" stroke="#F4A789" stroke-width="1.05729" stroke-linecap="round" stroke-linejoin="round"/>
<path d="M346.306 130.129C347.866 133.162 347.744 134.982 346.704 136.941C345.665 138.899 342.527 143.319 344.174 147.236" stroke="#F4A789" stroke-width="1.05729" stroke-linecap="round" stroke-linejoin="round"/>
<path d="M356.411 147.912C355.041 152.609 349.478 155.556 346.791 154.949C346.791 154.949 349.478 162.246 354.209 160.375C359.652 158.243 356.411 147.912 356.411 147.912Z" fill="white" stroke="#F4A789" stroke-width="1.05729" stroke-linecap="round" stroke-linejoin="round"/>
<path d="M385.254 149.524C386.325 150.261 387.54 150.762 388.818 150.995C390.097 151.228 391.41 151.187 392.672 150.876" stroke="#F4A789" stroke-width="1.05729" stroke-linecap="round" stroke-linejoin="round"/>
<path d="M402.083 124.686C407.422 132.001 399.414 135.086 399.414 135.086C398.596 133.914 397.523 132.942 396.277 132.244C395.489 131.781 394.608 131.499 393.698 131.419C392.787 131.339 391.871 131.463 391.014 131.782C390.158 132.101 389.383 132.606 388.746 133.262C388.11 133.917 387.627 134.706 387.333 135.571C376.431 135.797 381.128 127.286 381.128 127.286C371.352 131.186 371.04 121.185 375.252 116.661C367.626 125.224 357.92 116.661 359.514 108.948C356.81 117.372 347.191 117.615 348.473 110.682C347.647 112.122 346.646 113.456 345.492 114.651C338.871 121.289 332.961 114.183 335.439 108.931C325.525 118.377 321.227 107.805 330.69 102.119C323.202 95.9837 332.042 87.248 338.091 91.7198C336.722 80.8523 347.919 80.367 352.841 86.7107C354.783 74.7685 369.723 81.2856 370.33 86.9534C381.336 79.2577 389.864 84.9428 388.754 97.4396C393.209 91.4945 402.742 94.9784 399.154 110.231C408.219 109.572 409.796 120.96 402.083 124.686Z" fill="#063F6A"/>
<path d="M396.276 132.244C395.488 131.781 394.607 131.499 393.697 131.419C392.786 131.34 391.87 131.463 391.013 131.782C390.157 132.101 389.382 132.606 388.745 133.262C388.109 133.917 387.626 134.706 387.332 135.572C376.43 135.797 381.127 127.287 381.127 127.287C371.351 131.186 371.04 121.186 375.251 116.662C367.625 125.224 357.919 116.662 359.513 108.949C356.809 117.372 347.19 117.615 348.472 110.682C347.646 112.123 346.645 113.456 345.491 114.651C342.822 106.557 348.802 95.8799 357.936 100.785C359.132 94.2853 374.073 90.0735 373.986 106.539C379.515 98.8091 392.029 101.461 386.119 116.176C390.764 112.502 401.476 118.534 396.276 132.244Z" fill="#063F6A"/>
<path d="M376.223 135.103C377.541 137.738 375.062 141.655 370.677 143.856C366.292 146.058 361.664 145.59 360.277 143.042C358.891 140.494 361.439 136.49 365.824 134.289C370.209 132.087 374.889 132.469 376.223 135.103Z" fill="#F4A789"/>
<path d="M339.667 145.139C338.991 147.011 336.703 148.016 333.878 147.964C333.66 144.414 333.66 140.854 333.878 137.305C338.073 139.142 340.638 142.504 339.667 145.139Z" fill="#F4A789"/>
</svg>
