<svg width="507" height="377" viewBox="0 0 507 377" fill="none" xmlns="http://www.w3.org/2000/svg">
<path d="M302.121 23.7148C311.092 25.5091 314.332 34.4306 314.83 38.667H308.102C298.881 44.1495 279.393 53.6193 275.207 47.6384C269.973 40.1623 278.197 27.4529 285.673 23.7148C293.149 19.9768 290.907 21.472 302.121 23.7148Z" fill="#063F6A"/>
<path d="M283.205 46.8722C283.205 46.8722 283.504 47.56 284.042 48.7263C284.58 49.8926 285.104 50.9243 285.881 52.3896C286.404 53.4063 286.988 54.4978 287.645 55.6492C288.034 56.3519 288.453 57.1444 288.901 57.8172L289.335 58.52C290.322 60.1498 291.413 61.8394 292.61 63.4991C293.447 64.6653 294.329 65.8316 295.256 66.953C302.523 75.7599 308.623 72.0667 308.623 72.0667C310.327 73.5485 311.741 75.333 312.795 77.3299C314.272 80.0651 315.34 83.002 315.965 86.047C333.115 98.547 344 82.0697 338.902 67.4165C331.964 60.8821 325.775 53.5953 320.451 45.691C325.983 38.3345 316.772 31.92 312.541 36.1365L303.375 31.8901C284.057 26.7764 283.205 46.8722 283.205 46.8722Z" fill="#FEBD9D"/>
<path d="M311.839 44.6139C311.241 41.6235 313.085 36.8886 314.082 34.895L307.354 31.1569L298.382 28.1665C303.117 34.895 312.437 47.6044 311.839 44.6139Z" fill="#063F6A"/>
<path d="M317.984 37.9907C315.562 37.9907 313.499 38.9776 313.962 42.7007" stroke="#F4A789" stroke-width="1.12142" stroke-linecap="round" stroke-linejoin="round"/>
<path d="M315.546 44.465C319.059 42.282 315.979 39.4112 314.05 41.2204" stroke="#F4A789" stroke-width="1.12142" stroke-linecap="round" stroke-linejoin="round"/>
<path d="M298.351 63.0655C300.878 62.2731 301.97 59.0733 301.342 56.3071C308.07 61.0021 303.046 66.5644 298.351 63.0655Z" fill="white" stroke="#F4A789" stroke-width="1.12142" stroke-linecap="round" stroke-linejoin="round"/>
<path d="M296.615 59.1632C294.342 59.1632 292.354 59.552 291.816 55.2607C291.682 54.0388 291.255 52.8673 290.57 51.8466C289.885 50.8259 288.963 49.9862 287.883 49.3994" stroke="#F4A789" stroke-width="1.12142" stroke-linecap="round" stroke-linejoin="round"/>
<path d="M320.451 45.6909C319.626 46.8462 318.468 47.7225 317.132 48.2029" stroke="#F4A789" stroke-width="1.12142" stroke-linecap="round" stroke-linejoin="round"/>
<path d="M296.797 51.1935C296.797 51.4892 296.709 51.7783 296.545 52.0242C296.381 52.2701 296.147 52.4617 295.874 52.5749C295.601 52.688 295.3 52.7176 295.01 52.6599C294.72 52.6023 294.453 52.4599 294.244 52.2507C294.035 52.0416 293.893 51.7752 293.835 51.4852C293.777 51.1951 293.807 50.8945 293.92 50.6213C294.033 50.3481 294.225 50.1145 294.471 49.9502C294.717 49.7859 295.006 49.6982 295.302 49.6982C295.698 49.6982 296.079 49.8558 296.359 50.1362C296.639 50.4166 296.797 50.7969 296.797 51.1935Z" fill="#063F6A"/>
<path d="M287.644 55.679C288.033 56.3818 288.452 57.1743 288.9 57.8471H289.005C289.401 57.8471 289.782 57.6896 290.062 57.4092C290.342 57.1288 290.5 56.7484 290.5 56.3519C290.5 55.9553 290.342 55.575 290.062 55.2946C289.782 55.0142 289.401 54.8567 289.005 54.8567C288.724 54.8519 288.447 54.9265 288.206 55.072C287.965 55.2175 287.771 55.4279 287.644 55.679Z" fill="#063F6A"/>
<path d="M297.364 43.7174C298.082 45.8855 291.383 48.2031 290.382 45.9603C289.38 43.7174 296.452 40.8915 297.364 43.7174Z" fill="#063F6A"/>
<path d="M284.043 48.7265C284.491 49.6684 285.104 50.9244 285.882 52.3898C287.212 50.8945 288.439 48.9208 288.005 48.1583C287.317 46.9471 285.448 47.7994 284.043 48.7265Z" fill="#063F6A"/>
<path d="M308.623 72.1268C310.327 73.6086 311.741 75.3931 312.795 77.39C321.467 70.8559 315.95 63.4097 315.95 63.4097C314.437 66.9845 311.885 70.0218 308.623 72.1268V72.1268Z" fill="#F4A789"/>
<path d="M274.34 45.452C274.459 47.8892 276.702 50.3264 280.485 50.3862C283.999 50.3862 286.586 46.4239 286.002 42.5214C286.002 42.5214 291.983 43.9119 292.985 36.1218C292.985 36.1218 297.86 40.0991 300.461 33.6398C303.406 36.2417 306.099 39.1152 308.505 42.2223C311.496 46.4089 312.991 45.8258 313.081 44.0465C313.171 42.2672 311.302 39.3216 311.077 38.9627C309.137 37.7755 307.515 36.1332 306.352 34.178C302.555 28.5111 298.652 25.0123 295.288 29.1989C291.924 33.3856 288.036 29.1989 286.556 34.2677C285.15 39.1272 281.98 46.6183 274.34 45.452Z" fill="#063F6A"/>
<path d="M296.109 22.1711C295.914 26.5521 299.787 31.8153 299.787 31.8153" stroke="#002440" stroke-width="1.12142" stroke-linecap="round" stroke-linejoin="round"/>
<path d="M291.771 34.432C290.976 32.9794 289.872 31.7191 288.536 30.7399C287.2 29.7608 285.666 29.0867 284.041 28.7651" stroke="#002440" stroke-width="1.12142" stroke-linecap="round" stroke-linejoin="round"/>
<path d="M285.252 41.2054C283.089 39.8849 280.575 39.2538 278.045 39.3962" stroke="#002440" stroke-width="1.12142" stroke-linecap="round" stroke-linejoin="round"/>
<path d="M308.893 33.251C308.087 33.6011 307.381 34.1445 306.835 34.8331C306.29 35.5217 305.924 36.3341 305.768 37.1984" stroke="#063F6A" stroke-width="1.12142" stroke-linecap="round" stroke-linejoin="round"/>
<path d="M302.539 53.5411C304.528 54.0943 306.696 52.4496 307.398 49.8927C308.101 47.3359 307.055 44.809 305.066 44.2707C303.077 43.7324 300.894 45.3622 300.206 47.919C299.519 50.4759 300.595 53.0028 302.539 53.5411Z" fill="#F4A789"/>
<path d="M289.334 58.52C290.321 60.1498 291.413 61.8394 292.609 63.4991C292.74 63.2311 292.826 62.9431 292.863 62.6468C292.861 61.6518 292.505 60.69 291.859 59.9338C291.212 59.1776 290.317 58.6764 289.334 58.52V58.52Z" fill="#F4A789"/>
<path d="M260.834 249.385C263.032 269.556 278.015 259.852 298.933 257.071L310.536 256.607L387.704 253.617L394.148 253.362L371.72 190.115C322.124 204.827 258.053 223.697 260.834 249.385Z" fill="#0769B4"/>
<path d="M310.535 256.607L387.703 253.616L385.4 236.75L374.859 209.687C374.859 209.687 357.066 208.61 362.479 224.175C367.891 239.741 365.723 250.775 337.613 243.434C320.628 238.963 313.51 248.428 310.535 256.607Z" fill="#065795"/>
<path d="M352.162 166.325C365.305 183.446 372.423 220.542 374.067 242.806C375.249 258.835 377.656 300.118 383.682 334.643C404.48 379.245 433.144 358.177 431.529 326.748V326.583C428.733 303.557 430.034 283.85 432.59 275.611C436.059 264.666 444.627 228.183 446.047 213.216C449.247 180.321 441.846 152.27 431.095 136.257L352.162 166.325Z" fill="#0769B4"/>
<path d="M374.859 254.08C374.545 249.594 374.276 245.812 374.067 242.866C373.017 229.988 370.947 217.214 367.877 204.663" stroke="#065795" stroke-width="1.12142" stroke-linecap="round" stroke-linejoin="round"/>
<path d="M423.198 160.061C435.31 241.52 412.014 272.202 415.558 317.836C416.835 330.414 419.14 342.866 422.451 355.067" stroke="#065795" stroke-width="1.12142" stroke-linecap="round" stroke-linejoin="round"/>
<path d="M426.625 198.577C417.759 189.171 412.61 176.865 412.136 163.948" stroke="#065795" stroke-width="1.12142" stroke-linecap="round" stroke-linejoin="round"/>
<path d="M373.695 178.631C373.695 178.631 377.492 196.125 379.018 201.059C379.018 201.059 373.695 201.912 371.796 198.562C369.897 195.213 366.338 180.62 366.338 180.62" stroke="#065795" stroke-width="1.12142" stroke-linecap="round" stroke-linejoin="round"/>
<path d="M285.236 144.301L292.862 176.747C294.955 187.468 295.523 196.185 296.704 202.525C298.334 211.376 301.19 215.862 310.774 215.354L311.163 215.249L312.539 214.875L313.451 214.606L314.647 214.202C315.17 214.008 315.679 213.814 316.142 213.604C317.01 213.255 317.858 212.861 318.684 212.423L319.581 211.93C320.909 211.185 322.166 210.319 323.334 209.343C323.564 209.166 323.784 208.976 323.992 208.775C325.723 207.262 327.21 205.492 328.403 203.526C328.735 202.994 329.04 202.445 329.315 201.882C330.042 200.452 330.614 198.948 331.02 197.396C331.094 197.127 331.154 196.873 331.214 196.619C331.274 196.364 331.349 196.02 331.393 195.736C331.438 195.452 331.483 195.228 331.528 194.974C331.736 193.664 331.792 192.334 331.693 191.011C331.184 185.539 324.411 129.079 324.411 129.079L321.929 122.949L318.609 114.74L285.236 144.301Z" fill="#D7E3F6"/>
<path d="M296.704 202.525C298.334 211.376 301.189 215.862 310.774 215.354L311.192 215.249L312.568 214.875L313.48 214.606L314.676 214.202C315.2 214.008 315.708 213.814 316.171 213.604C317.039 213.255 317.887 212.861 318.713 212.423L319.61 211.93C320.938 211.185 322.195 210.319 323.364 209.343C323.593 209.166 323.813 208.976 324.021 208.775C325.752 207.262 327.24 205.492 328.432 203.526C328.765 202.994 329.069 202.445 329.344 201.882C330.071 200.452 330.643 198.948 331.049 197.396C331.124 197.127 331.184 196.873 331.243 196.619C331.303 196.364 331.378 196.02 331.423 195.736C331.468 195.452 331.513 195.228 331.557 194.974C331.766 193.664 331.821 192.334 331.722 191.011C331.213 185.539 324.44 129.079 324.44 129.079L321.958 122.949C316.59 133.221 310.236 149.863 317.637 161.182C329.03 178.616 327.356 206.906 304.763 203.227C302.099 202.786 299.404 202.551 296.704 202.525Z" fill="#D7E3F6"/>
<path d="M307.383 118.598C309.377 120.153 311.37 121.828 313.364 123.622C332.443 140.951 349.772 168.479 354.662 171.469C361.704 175.685 378.212 173.263 394.046 169.241C405.961 166.279 417.637 162.425 428.974 157.713C438.559 153.227 440.936 150.461 439.336 146.902C437.736 143.344 428.212 121.11 428.212 121.11L430.559 118.792L456.531 93.1941C441.145 81.5912 421.005 68.6276 402.509 61.4207C389.964 56.5463 378.197 54.3333 369.18 56.935L307.383 118.598Z" fill="#D7E3F6"/>
<path d="M307.382 118.598C309.375 120.153 311.369 121.828 313.363 123.622C333.428 123.951 352.567 137.617 369.478 122.934C390.411 104.767 371.467 91.3101 384.431 73.5918C389.001 67.7147 395.312 63.4335 402.463 61.3609C389.918 56.4864 378.151 54.2735 369.134 56.8752L307.382 118.598Z" fill="#D7E3F6"/>
<path d="M394.03 169.211C405.945 166.249 417.621 162.396 428.958 157.683C438.543 153.198 440.92 150.431 439.32 146.873C437.72 143.314 428.196 121.08 428.196 121.08L430.543 118.763C423.067 110.898 412.705 99.9826 412.137 99.3247C411.225 98.2482 389.35 105.545 389.35 105.545C389.35 105.545 390.082 130.022 410.103 132.354C430.125 134.687 426.551 150.626 408.803 152.794C397.394 154.154 394.583 163.006 394.03 169.211Z" fill="#D7E3F6"/>
<path d="M455.094 92.1025C486.808 110.509 459.909 173.383 390.007 110.598C382.636 75.2663 422.349 70.8255 455.094 92.1025Z" fill="#D7E3F6"/>
<path d="M307.381 118.598C313.184 123.212 318.577 128.32 323.5 133.864" stroke="#8BA7D1" stroke-width="1.12142" stroke-linecap="round" stroke-linejoin="round"/>
<path d="M383.042 330.874C383.252 332.16 383.461 333.431 383.685 334.687C386.018 348.144 388.904 360.495 392.477 369.989C405.261 403.931 426.867 457.026 426.867 457.026L468.061 453.602C465.07 445.573 450.118 411.467 435.779 350.327C433.946 342.527 432.554 334.63 431.607 326.673C431.532 326.105 431.472 325.522 431.413 324.953C428.318 306.428 389.098 288.59 383.042 330.874Z" fill="#0769B4"/>
<path d="M415.187 307.026C415.187 310.554 415.262 314.143 415.546 317.836C419.104 363.5 455.169 452.899 455.453 454.664" stroke="#065795" stroke-width="1.12142" stroke-linecap="round" stroke-linejoin="round"/>
<path d="M303.885 356.114C303.885 356.114 309.986 373.698 308.147 387.947H251.328C251.328 387.947 279.812 371.29 281.233 359.074L303.885 356.114Z" fill="#063F6A"/>
<path d="M260.359 261.377C265.039 296.395 273.995 361.078 273.995 361.078H311.211L298.935 257.07C298.771 238.963 286.48 219.69 273.92 228.123C256.62 239.815 259.446 254.543 260.359 261.377Z" fill="#0769B4"/>
<path d="M231.424 217.492C231.424 217.492 246.377 218.03 263.916 218.03C278.374 218.03 294.568 217.671 305.438 216.326C306.275 216.221 307.083 216.101 307.875 215.952C308.234 215.952 308.593 215.832 308.937 215.757C309.281 215.683 309.535 215.653 309.834 215.578C310.357 215.473 310.866 215.339 311.329 215.219L312.824 214.786L313.168 214.681L314.439 214.247L314.663 214.173L316.159 213.604C316.214 213.592 316.265 213.566 316.308 213.53C333.264 202.734 333.772 190.877 324.517 183.625C318.013 178.452 306.664 175.551 292.803 176.822L234.011 188.589L231.424 217.492Z" fill="#D7E3F6"/>
<path d="M263.916 218.03C278.374 218.03 294.568 217.671 305.438 216.326C306.275 216.221 307.083 216.101 307.875 215.952C308.234 215.952 308.593 215.832 308.937 215.758C309.281 215.683 309.535 215.653 309.834 215.578C310.357 215.473 310.866 215.339 311.329 215.219L312.824 214.786L313.168 214.681L314.439 214.247L314.663 214.173L316.159 213.604C316.214 213.592 316.265 213.566 316.308 213.53C333.264 202.734 333.772 190.877 324.517 183.625C324.667 195.587 318.701 205.56 304.75 203.287C285.641 200.088 269.119 207.683 263.916 218.03Z" fill="#D7E3F6"/>
<path d="M292.847 176.792C296.808 176.127 300.8 175.663 304.809 175.401" stroke="#8BA7D1" stroke-width="1.12142" stroke-linecap="round" stroke-linejoin="round"/>
<rect y="247" width="507" height="130" rx="10" fill="#F5F7FA"/>
<path d="M142.999 270.677L160.18 263.933L186.166 253.706C186.166 253.706 317.895 123.308 380.994 60.673C398.353 43.4331 410.524 31.3368 413.32 28.4959C422.621 19.0162 400.596 -5.8942 388.829 4.48264C387.917 5.30501 375.701 17.1472 357.339 35.015C294.256 96.3191 158.475 228.736 158.475 228.736L149.384 253.317L142.999 270.677Z" fill="#F9F9F9" stroke="#DDDDDD" stroke-width="2.99044" stroke-linecap="round" stroke-linejoin="round"/>
<path d="M346.498 62.0935L177.149 225.925" stroke="#DDDDDD" stroke-width="1.49522" stroke-linecap="round" stroke-linejoin="round"/>
<path d="M353.721 73.1731L185.867 235.569" stroke="#DDDDDD" stroke-width="1.49522" stroke-linecap="round" stroke-linejoin="round"/>
<path d="M149.43 253.317C154.134 255.506 157.933 259.258 160.181 263.933L186.168 253.706C186.168 253.706 185.45 245.049 175.851 246.379C177.914 240.772 173.773 234.418 166.685 238.993C166.685 238.993 168.18 229.857 158.521 228.736L149.43 253.317Z" fill="#F9F9F9" stroke="#DDDDDD" stroke-width="2.99044" stroke-linecap="round" stroke-linejoin="round"/>
<path d="M143 270.677L160.18 263.933C157.932 259.258 154.133 255.506 149.429 253.317L143 270.677Z" fill="#DDDDDD" stroke="#DDDDDD" stroke-width="2.99044" stroke-linecap="round" stroke-linejoin="round"/>
<path d="M357.339 35.0151C365.219 43.5528 373.862 52.9577 380.994 60.673C398.353 43.4331 410.524 31.3368 413.32 28.4959C422.621 19.0162 400.596 -5.8942 388.829 4.48264C387.917 5.30501 375.701 17.1472 357.339 35.0151Z" stroke="#DDDDDD" stroke-width="2.99044" stroke-linecap="round" stroke-linejoin="round"/>
<path d="M365.982 26.6118L390.189 51.5521" stroke="#DDDDDD" stroke-width="2.99044" stroke-linecap="round" stroke-linejoin="round"/>
<path d="M244.84 198.577C231.787 187.632 228.826 187.767 227.615 189.202C226.404 190.638 231.816 196.917 233.596 198.577C233.596 198.577 222.546 190.294 219.346 192.282C216.147 194.271 220.348 198.577 220.348 198.577C220.348 198.577 214.188 198.473 218.15 205.096C218.15 205.096 214.95 205.096 216.819 208.401C218.688 211.705 230.172 219.585 234.358 217.581C238.545 215.578 251.15 203.885 244.84 198.577Z" fill="#FEBD9D"/>
<path d="M239.172 194.032C230.858 187.707 228.705 188.051 227.614 189.202C226.522 190.353 231.815 196.917 233.595 198.577C233.595 198.577 222.545 190.294 219.345 192.282C216.145 194.271 220.347 198.577 220.347 198.577C220.347 198.577 214.187 198.472 218.149 205.096C218.149 205.096 214.949 205.096 216.818 208.401" stroke="#F4A789" stroke-width="1.12142" stroke-linecap="round" stroke-linejoin="round"/>
<path d="M220.331 198.577L231.994 206.113" stroke="#F4A789" stroke-width="1.12142" stroke-linecap="round" stroke-linejoin="round"/>
<path d="M228.9 211.795L218.135 205.096" stroke="#F4A789" stroke-width="1.12142" stroke-linecap="round" stroke-linejoin="round"/>
<path d="M233.58 198.577L236.959 201.343" stroke="#F4A789" stroke-width="1.12142" stroke-linecap="round" stroke-linejoin="round"/>
<path d="M370.392 105.455C368.979 99.3891 369.143 93.0626 370.87 87.0786L384.043 93.3585C384.043 93.3585 379.243 106.516 370.392 105.455Z" fill="#D7E3F6"/>
<path d="M384.222 70.347C380.523 69.9756 376.853 69.3663 373.232 68.5228C372.44 68.0742 366.758 63.5288 364.261 61.884C361.764 60.2393 351.611 53.6753 350.654 54.2883C349.697 54.9014 349.354 57.8768 351.178 60.0599C351.178 60.0599 340.098 55.3499 335.313 54.7817C331.411 54.3182 332.173 57.9965 334.79 59.6861C330.604 57.832 325.624 59.6861 331.291 63.7232C327.464 63.0653 325.475 66.0108 331.471 70.347C328.151 68.5228 325.894 71.0049 328.944 74.1C333.908 79.1538 344.12 83.0713 347.35 84.2974C350.58 85.5235 371.049 90.069 378.989 94.5546C378.989 94.5546 385.822 82.2789 384.222 70.347Z" fill="#FEBD9D"/>
<path d="M364.244 61.884C361.717 60.2393 351.595 53.6753 350.638 54.2883C349.681 54.9014 349.337 57.8768 351.161 60.0599C351.161 60.0599 340.081 55.3499 335.297 54.7817C331.394 54.3182 332.157 57.9965 334.773 59.6861C330.587 57.832 325.608 59.6861 331.275 63.7232C327.447 63.0653 325.458 66.0108 331.454 70.347C328.135 68.5228 325.877 71.0049 328.927 74.1" stroke="#F4A789" stroke-width="1.12142" stroke-linecap="round" stroke-linejoin="round"/>
<path d="M351.162 60.0598L356.889 62.8708" stroke="#F4A789" stroke-width="1.12142" stroke-linecap="round" stroke-linejoin="round"/>
<path d="M334.775 59.686L346.498 65.1286" stroke="#F4A789" stroke-width="1.12142" stroke-linecap="round" stroke-linejoin="round"/>
<path d="M331.278 63.7231L344.002 70.347" stroke="#F4A789" stroke-width="1.12142" stroke-linecap="round" stroke-linejoin="round"/>
<path d="M331.455 70.3472L341.428 76.0141" stroke="#F4A789" stroke-width="1.12142" stroke-linecap="round" stroke-linejoin="round"/>
<path d="M378.346 66.2651C398.816 68.3435 435.748 74.4739 463.439 94.5099C474.16 102.255 473.995 134.881 444.734 132.174C415.472 129.468 370.347 105.455 370.347 105.455C370.347 105.455 381.949 102.898 378.346 66.2651Z" fill="#D7E3F6"/>
<path d="M426.627 128.586C399.877 121.11 370.392 105.455 370.392 105.455C370.392 105.455 381.95 102.898 378.391 66.2651C394.048 67.7802 409.509 70.8914 424.534 75.5505" stroke="#8BA7D1" stroke-width="1.12142" stroke-linecap="round" stroke-linejoin="round"/>
</svg>
