<svg width="670" height="441" viewBox="0 0 670 441" fill="none" xmlns="http://www.w3.org/2000/svg">
<g clip-path="url(#clip0_1116_2464)">
<path d="M390.164 546.409H348.766L346.618 226.505L386.831 229.549L390.164 546.409Z" fill="#A7CAF0"/>
<path d="M379.973 269.845C374.464 268.963 372.302 266.953 372.302 266.953" stroke="#83ADDF" stroke-width="0.977792" stroke-linecap="round" stroke-linejoin="round"/>
<path d="M358.585 238.101C358.915 248.512 355.252 261.182 350.694 264.515" stroke="#83ADDF" stroke-width="0.977792" stroke-linecap="round" stroke-linejoin="round"/>
<path d="M444.243 192.173C449.986 269.845 446.998 322.082 441.889 388.379C436.779 454.676 428.502 552.262 428.502 552.262H385.273L382.092 220.198L444.243 192.173Z" fill="#A7CAF0"/>
<path d="M385.273 552.29L382.671 273.646" stroke="#83ADDF" stroke-width="0.977792" stroke-linecap="round" stroke-linejoin="round"/>
<path d="M224.998 154.121C224.998 166.668 229.695 177.836 237.021 185.08C241.632 189.808 247.741 192.787 254.305 193.509C254.745 193.509 255.2 193.577 255.682 193.591H256.742C270.046 193.591 281.449 183.414 286.159 168.967C287.725 164.166 288.516 159.145 288.5 154.094C288.5 141.933 284.093 131.081 277.166 123.796C274.571 120.945 271.421 118.654 267.909 117.065C264.397 115.476 260.597 114.622 256.742 114.555C239.266 114.624 224.998 132.307 224.998 154.121Z" fill="#D7E3F6"/>
<path d="M237.089 185.08C241.7 189.808 247.809 192.787 254.373 193.509C254.813 193.509 255.268 193.577 255.75 193.591H256.81C270.114 193.591 281.517 183.414 286.227 168.967C271.546 177.575 265.803 195.134 240.022 186.141C239.072 185.92 238.094 185.493 237.089 185.08Z" fill="#A7BEE1"/>
<path d="M240.023 186.168C241.801 188.291 243.988 190.035 246.453 191.296C248.918 192.557 251.612 193.309 254.373 193.509C254.814 193.509 255.268 193.577 255.75 193.591H256.811C260.725 193.59 264.616 192.996 268.352 191.828C291.653 184.942 317.806 167.948 334.718 157.399L334.952 157.248C338.932 154.755 342.375 152.648 345.143 151.105L346.52 150.375C352.759 147.07 357.799 139.661 360.87 131.095C361.462 129.415 361.986 127.693 362.426 125.944C367.935 104.447 361.256 79.1206 331.908 89.1877C326.399 91.0744 319.114 94.9581 310.989 100.026C299.354 107.408 288.106 115.384 277.289 123.92C258.133 138.862 241.276 154.218 237.572 160.925C235.534 164.929 234.682 169.432 235.117 173.904C235.551 178.376 237.253 182.631 240.023 186.168Z" fill="#D7E3F6"/>
<path d="M237.089 185.08C241.7 189.807 247.809 192.787 254.373 193.508C254.814 193.508 255.268 193.577 255.75 193.591H256.81C260.724 193.59 264.615 192.995 268.351 191.828C291.653 184.942 317.805 167.948 334.717 157.399C334.717 157.399 334.786 157.316 334.951 157.247C338.931 154.755 342.374 152.648 345.142 151.105L346.519 150.375C352.758 147.07 357.798 139.661 360.87 131.095C361.462 129.415 361.985 127.693 362.426 125.944C352.786 124.402 341.658 125.325 329.236 130.682C324.485 132.748 315.616 136.521 320.615 143.228C326.909 151.67 321.689 164.67 302.808 164.67C297.001 164.581 291.282 166.096 286.282 169.05C271.601 177.657 265.858 195.216 240.078 186.223C239.072 185.92 238.095 185.493 237.089 185.08Z" fill="#A7BEE1"/>
<path d="M310.933 99.971C315.516 99.6197 320.126 99.9258 324.622 100.88C332.472 102.546 341.864 106.609 347.662 116.387C351.092 122.055 355.558 127.026 360.828 131.04C368.774 108.744 363.582 78.2668 331.907 89.1326C326.343 91.0194 319.058 94.903 310.933 99.971Z" fill="#D7E3F6"/>
<path d="M320.575 86.089C323.054 85.483 319.597 76.7104 313 68.4474C306.789 60.6664 302.864 56.4247 300.978 59.0276C299.821 60.5975 301.529 85.3866 320.575 86.089Z" fill="#A7BEE1"/>
<path d="M310.15 86.8602C318.055 75.8428 323.26 66.8086 326.965 63.8339C330.67 60.8592 334.085 59.3856 334.484 55.9152C334.588 53.4156 334 50.9358 332.786 48.7489C331.571 46.562 329.776 44.7528 327.598 43.5206C322.09 40.3669 297.962 70.0036 297.962 70.0036C297.962 70.0036 297.163 84.7807 310.15 86.8602Z" fill="#FEBD9D"/>
<path d="M348.944 27.0498C344.248 22.3811 339.303 23.1386 328.754 32.9165C318.205 42.6944 306.541 47.7762 304.075 55.6812C301.39 64.2196 308.537 70.9953 318.067 69.8523C321.414 69.4529 326.661 68.8607 321.414 56.8655L335.516 45.0081C335.516 45.0081 339.441 50.9024 345.473 49.236C351.698 47.5145 359.865 37.9432 348.944 27.0498Z" fill="#DDDDDD" stroke="#DDDDDD" stroke-width="1.30831" stroke-linecap="round" stroke-linejoin="round"/>
<path d="M319.018 46.6056C316.746 47.7762 310.466 38.7144 313.509 36.9654C317.475 34.5691 321.29 45.4487 319.018 46.6056Z" fill="#FEBD9D" stroke="#F4A789" stroke-width="0.977792" stroke-linecap="round" stroke-linejoin="round"/>
<path d="M321.4 56.8655C319.798 54.0643 317.271 51.9075 314.253 50.7646" stroke="#DDDDDD" stroke-width="1.30831" stroke-linecap="round" stroke-linejoin="round"/>
<path d="M335.475 45.0079C334.628 43.7821 334.041 42.3954 333.752 40.9337C333.463 39.4721 333.478 37.9666 333.794 36.5107" stroke="#DDDDDD" stroke-width="1.30831" stroke-linecap="round" stroke-linejoin="round"/>
<path d="M335.42 57.4991C333.561 61.7132 328.204 55.571 326 49.663C323.893 44.0303 324.403 42.7771 327.612 43.3417C330.82 43.9064 337.927 51.894 335.42 57.4991Z" fill="#FEBD9D" stroke="#F4A789" stroke-width="0.977792" stroke-linecap="round" stroke-linejoin="round"/>
<path d="M330.71 38.8797C328.162 40.1742 321.069 30.176 324.457 28.2204C328.988 25.59 333.285 37.5852 330.71 38.8797Z" fill="#FEBD9D" stroke="#F4A789" stroke-width="0.977792" stroke-linecap="round" stroke-linejoin="round"/>
<path d="M326.689 41.0144C324.128 42.309 317.049 32.2969 320.423 30.3414C324.954 27.7247 329.251 39.7199 326.689 41.0144Z" fill="#FEBD9D" stroke="#F4A789" stroke-width="0.977792" stroke-linecap="round" stroke-linejoin="round"/>
<path d="M322.776 44.0717C320.339 45.3112 313.563 35.726 316.786 33.8531C321.096 31.264 325.214 42.7634 322.776 44.0717Z" fill="#FEBD9D" stroke="#F4A789" stroke-width="0.977792" stroke-linecap="round" stroke-linejoin="round"/>
<path d="M320.574 86.0891C310.562 100.205 282.991 141.176 272.566 154.948C259.056 172.851 226.706 175.729 226.692 141.548C226.692 124.609 300.977 59.0139 300.977 59.0139C300.977 59.0139 304.751 79.0793 320.574 86.0891Z" fill="#D7E3F6"/>
<path d="M311.043 90.2345C298.717 86.103 294.517 72.1798 294.517 72.1798" stroke="#A7BEE1" stroke-width="0.977792" stroke-linecap="round" stroke-linejoin="round"/>
<path d="M305.316 65.0599C286.931 90.4688 280.375 107.821 284.755 114.638C289.134 121.455 298.981 117.751 297.989 112.049C296.612 104.929 284.782 103.111 289.726 122.254C294.67 141.397 308.07 143.049 310.384 137.72C313.675 130.365 299.972 122.571 298.554 141.851C297.135 161.131 318.647 166.007 324.72 161.131C330.794 156.256 313.772 143.655 314.033 164.864C314.295 186.072 339.346 186.706 350.652 183.869" stroke="#DDDDDD" stroke-width="2.6304" stroke-linecap="round" stroke-linejoin="round"/>
<path d="M320.574 86.089C310.562 100.205 282.991 141.176 272.566 154.948C269.473 158.996 265.504 162.292 260.956 164.588" stroke="#A7BEE1" stroke-width="0.977792" stroke-linecap="round" stroke-linejoin="round"/>
<path d="M471.114 202.102C471.055 207.091 472.168 212.025 474.364 216.505C476.56 220.985 479.777 224.887 483.757 227.897C488.391 231.308 493.991 233.155 499.746 233.171H499.828C503.435 233.156 507.001 232.407 510.309 230.968C520.885 226.423 528.363 215.213 528.363 202.047V201.303C528.308 196.919 527.351 192.593 525.553 188.594C523.755 184.595 521.154 181.008 517.911 178.057C514.557 175.045 510.52 172.894 506.149 171.791C504.056 171.26 501.905 170.992 499.746 170.992C488.398 170.992 478.578 178.167 473.951 188.565C472.929 190.846 472.18 193.241 471.72 195.698C471.304 197.807 471.101 199.953 471.114 202.102Z" fill="#D7E3F6"/>
<path d="M499.828 233.171C503.435 233.156 507.001 232.406 510.309 230.968C520.885 226.423 528.363 215.213 528.363 202.047V201.303C528.308 196.919 527.351 192.593 525.553 188.594C523.755 184.594 521.154 181.008 517.911 178.057C520.21 208.341 516.96 223.944 499.828 233.171Z" fill="#A7BEE1"/>
<path d="M413.837 111.76C414.622 114.252 415.545 116.814 416.591 119.417C417.638 122.02 418.588 124.223 419.731 126.661C420.103 127.432 420.475 128.189 420.86 128.961C422.045 131.375 423.33 133.794 424.717 136.218C425.185 137.045 425.639 137.857 426.094 138.656C434.253 152.113 443.512 164.873 453.775 176.804C456.13 179.558 458.54 182.312 461.005 184.943L462.74 186.788C464.572 188.716 466.417 190.617 468.249 192.448C469.392 193.564 470.535 194.679 471.678 195.74C485.601 208.837 499.952 218.367 511.616 218.628C512.703 218.659 513.79 218.599 514.866 218.449C518.055 218.097 521.04 216.709 523.363 214.497C526.476 211.467 528.128 206.909 528.321 201.345C528.638 190.961 523.832 177.093 513.847 163.252C513.296 162.495 512.732 161.696 512.139 160.856C502.362 146.836 487.929 123.066 471.926 103.731C457.259 85.9928 441.215 71.9732 426.176 72.6618C424.972 72.7113 423.774 72.8633 422.596 73.1162C409.54 75.843 407.64 91.8871 413.837 111.76Z" fill="#D7E3F6"/>
<path d="M512.249 200.987C514.378 203.47 515.497 206.661 515.388 209.93C515.278 213.198 513.947 216.307 511.657 218.642C512.744 218.673 513.831 218.613 514.907 218.463C518.096 218.111 521.081 216.723 523.404 214.51C526.517 211.481 528.169 206.922 528.362 201.359C528.679 190.975 523.873 177.106 513.888 163.266C513.337 162.508 512.773 161.71 512.18 160.87C509.144 163.879 507.048 167.707 506.148 171.887C505.361 175.214 505.077 178.64 505.308 182.051C505.722 189.115 508.159 196.194 512.249 200.987Z" fill="#A7BEE1"/>
<path d="M416.562 119.417C419.237 126.08 422.423 132.526 426.093 138.697C434.252 152.155 443.511 164.914 453.774 176.845C458.429 182.354 463.317 187.601 468.289 192.504" stroke="#A7BEE1" stroke-width="0.977792" stroke-linecap="round" stroke-linejoin="round"/>
<path d="M413.837 111.76C420.847 103.166 428.614 98.4975 441.38 98.4287C449.299 98.4287 459.132 100.123 471.898 103.745C457.259 85.9928 441.215 71.9732 426.176 72.6618C424.972 72.7113 423.774 72.8633 422.596 73.1162C409.54 75.843 407.64 91.8871 413.837 111.76Z" fill="#D7E3F6"/>
<path d="M324.623 100.88C325.174 113.054 330.366 136.149 334.002 153.791C334.236 154.962 334.484 156.174 334.718 157.399C339.235 180.646 343.779 215.461 343.807 220.749C343.807 238.308 355.981 235.141 389.984 234.19C406.73 233.722 425.225 233.102 439.038 230.348C442.932 229.635 446.747 228.542 450.428 227.084C457.024 224.33 460.839 220.446 460.178 214.869C460.083 214.185 459.94 213.508 459.751 212.844C456.443 201.096 454.439 189.019 453.774 176.831C453.292 170.207 453.031 163.528 452.714 156.628C452.466 150.761 452.177 144.743 451.681 138.504C450.731 125.986 446.379 110.961 441.448 98.4563C435.788 84.0648 429.343 72.9511 426.3 72.7032H426.107C420.46 72.2762 406.138 74.1905 385.15 74.6037C376.264 74.8056 367.466 76.4091 359.08 79.3549C355.403 80.6495 340.612 84.96 331.798 89.1741C329.457 90.1091 327.334 91.5154 325.559 93.3057C324.719 94.4212 324.444 97.1342 324.623 100.88Z" fill="#D7E3F6"/>
<path d="M439.038 230.32C442.932 229.607 446.747 228.514 450.428 227.057C457.024 224.302 460.839 220.419 460.178 214.841C460.083 214.157 459.94 213.481 459.751 212.817C456.443 201.068 454.439 188.991 453.774 176.804C453.292 170.179 453.031 163.5 452.714 156.6L423.655 128.961C415.682 142.292 430.996 168.086 441.201 174.71C451.405 181.334 450.703 194.404 429.192 198.976C412.872 202.446 429.866 221.369 439.038 230.32Z" fill="#A7BEE1"/>
<path d="M310.934 99.9711C315.517 99.6198 320.127 99.9259 324.623 100.88C332.473 102.546 341.865 106.609 347.663 116.387C351.093 122.055 355.559 127.026 360.829 131.04C374.601 141.507 393.041 144.674 404.899 125.063C407.586 120.423 410.595 115.978 413.905 111.76C420.915 103.166 428.682 98.4975 441.449 98.4287C449.367 98.4287 459.2 100.123 471.967 103.745C457.259 85.9928 441.215 71.9732 426.176 72.6618C420.529 72.2349 406.207 74.1491 385.219 74.5623C376.333 74.7642 367.535 76.3677 359.149 79.3135C355.472 80.6081 340.681 84.9186 331.867 89.1328C326.345 91.0195 319.059 94.9031 310.934 99.9711Z" fill="#D7E3F6"/>
<path d="M368.113 95.8947C368.113 95.8947 364.202 108.565 362.605 109.666L356.008 110.699C353.856 106.85 352.05 102.817 350.609 98.6491L357.647 88.6646L368.113 95.8947Z" fill="#0769B4"/>
<path d="M362.714 109.694L377.863 167.439C377.863 167.439 376.114 175.151 367.466 186.884C367.466 186.884 358.721 175.468 356.875 170.524L356.145 110.727L362.714 109.694Z" fill="#0769B4"/>
<path d="M379.145 69.99C382.725 70.1002 390.162 73.3916 390.162 76.3938C390.162 79.3961 383.469 103.18 372.7 109.102C372.7 109.102 368.568 96.7071 357.661 94.9306L379.145 69.99Z" fill="white"/>
<path d="M357.703 94.9308C353.467 100.142 349.951 105.9 347.25 112.049C347.25 112.049 336.619 98.1396 338.078 86.9018C338.313 85.0289 347.719 80.5393 347.719 80.5393L357.703 94.9308Z" fill="white"/>
<path d="M334.717 157.399C334.483 156.173 334.235 154.962 334.001 153.791C332.513 146.602 330.778 138.518 329.194 130.627C329.084 130.062 328.988 129.511 328.878 128.961" stroke="#A7BEE1" stroke-width="0.977792" stroke-linecap="round" stroke-linejoin="round"/>
<path d="M344.812 83.1834C344.812 83.1834 349.137 95.9222 357.923 95.8947C372.259 95.8947 381.211 72.8683 381.211 72.8683C376.804 54.9651 377.245 46.7021 377.245 46.7021C377.727 34.8859 350.61 19.2963 346.864 54.3729L346.534 59.0278L345.377 75.2922L344.812 83.1834Z" fill="#FEBD9D"/>
<path d="M345.431 75.2921C354.658 74.9891 363.087 70.1828 363.527 59.0277H346.588L345.431 75.2921Z" fill="#F4A789"/>
<path d="M347.704 12.5206C348.158 15.7019 352.248 17.8089 352.248 17.8089L361.654 31.8285C361.654 31.8285 370.179 41.5927 379.282 40.6011C380.621 40.448 381.924 40.0709 383.138 39.4856C387.628 37.3097 385.011 33.068 385.893 31.7046C386.774 30.3412 389.019 30.1484 389.57 27.5731C390.12 24.9978 386.03 25.2181 387.766 22.4775C389.501 19.737 390.52 17.4922 387.642 15.4953C384.763 13.4984 387.531 12.7409 385.7 9.55966C384.323 7.09453 381.913 10.083 381.045 6.80532C380.177 3.52765 377.547 4.71202 375.66 4.40904C373.264 4.02343 375.302 1.95767 372.038 1.17268C370.441 0.787076 370.496 2.66003 368.623 1.4068C367.824 0.804796 366.877 0.43161 365.882 0.327284C364.887 0.222958 363.883 0.391427 362.976 0.814619C360.58 2.39837 360.69 -0.796672 357.688 0.194892C355.567 0.89725 356.917 2.50854 353.997 2.94924C351.078 3.38993 351.146 5.12517 350.912 6.95681L350.788 7.71425C350.403 9.86264 347.263 9.33932 347.704 12.5206Z" fill="#063F6A"/>
<path d="M345.693 11.0196C346.161 14.4212 350.444 16.6798 350.444 16.6798L360.304 31.6772C360.304 31.6772 369.242 42.1299 378.786 41.0695C378.604 40.2821 378.656 39.4585 378.938 38.7008C379.915 37.2272 382.215 37.0344 382.794 34.2938C383.372 31.5532 379.075 31.7598 380.893 28.7851C382.711 25.8104 383.771 23.4555 380.769 21.3208C377.767 19.1862 380.659 18.3737 378.731 14.9721C377.244 12.3279 374.765 15.523 373.842 12.0662C372.919 8.60955 370.179 9.83523 368.209 9.51848C365.703 9.09156 367.838 6.88808 364.395 6.04801C362.742 5.62108 362.783 7.63175 360.828 6.2959C358.872 4.96004 356.379 4.65706 354.906 5.6624C352.399 7.35632 352.51 3.94093 349.397 5.00135C349.298 5.02269 349.201 5.05502 349.108 5.09776C349.108 5.37319 349.108 5.63485 348.984 5.91029C348.502 8.14131 345.211 7.59044 345.693 11.0196Z" fill="#063F6A"/>
<path d="M339.385 57.7333C341.919 64.8808 357.205 72.9924 375.77 49.6493C377.437 50.1552 379.233 50.0307 380.815 49.2995C382.396 48.5682 383.654 47.2812 384.349 45.683C387.104 40.4085 383.165 32.6825 374.021 36.4009C372.354 37.0757 371.431 32.8616 373.442 29.9144C375.453 26.9673 378.951 19.806 370.798 14.5865C362.645 9.367 351.821 9.90409 347.661 16.4181C345.051 20.7417 342.975 25.3661 341.478 30.1898C340.776 32.352 340.101 34.583 339.646 36.8416C337.925 44.4711 337.457 52.2246 339.385 57.7333Z" fill="#FEBD9D"/>
<path d="M356.696 38.673C357.123 40.4082 360.525 41.0693 364.312 40.1328C368.099 39.1963 370.799 37.0479 370.372 35.3127C369.945 33.5775 366.529 32.9164 362.756 33.8391C358.982 34.7618 356.269 36.9378 356.696 38.673Z" fill="#F4A789"/>
<path d="M339.648 36.8688C341.466 37.8741 343.119 38.0945 343.959 37.2682C345.171 36.0563 344.083 32.9163 341.48 30.217C340.777 32.3792 340.158 34.6102 339.648 36.8688Z" fill="#F4A789"/>
<path d="M367.205 26.6365C366.902 28.1376 357.097 25.2593 358.047 22.1194C359.328 17.9052 367.728 23.9372 367.205 26.6365Z" fill="#063F6A"/>
<path d="M352.909 22.0367C352.702 23.9785 344.839 24.006 344.866 22.7528C344.894 21.4996 353.377 17.6711 352.909 22.0367Z" fill="#063F6A"/>
<path d="M359.754 31.1538C359.754 31.5052 359.65 31.8486 359.454 32.1408C359.259 32.433 358.982 32.6607 358.657 32.7951C358.333 32.9296 357.975 32.9648 357.631 32.8962C357.286 32.8277 356.97 32.6585 356.721 32.41C356.473 32.1616 356.303 31.845 356.235 31.5004C356.166 31.1558 356.202 30.7986 356.336 30.4739C356.47 30.1493 356.698 29.8719 356.99 29.6767C357.282 29.4814 357.626 29.3773 357.977 29.3773C358.211 29.3754 358.443 29.4201 358.659 29.5087C358.876 29.5974 359.072 29.7282 359.238 29.8935C359.403 30.0588 359.534 30.2554 359.622 30.4718C359.711 30.6882 359.756 30.92 359.754 31.1538Z" fill="#063F6A"/>
<path d="M349.523 29.3771C349.512 29.7259 349.398 30.0638 349.197 30.3486C348.995 30.6334 348.714 30.8525 348.389 30.9786C348.063 31.1046 347.708 31.132 347.367 31.0574C347.026 30.9828 346.715 30.8094 346.472 30.5589C346.229 30.3083 346.065 29.9918 346.001 29.6488C345.936 29.3058 345.975 28.9514 346.111 28.63C346.247 28.3086 346.474 28.0343 346.765 27.8414C347.056 27.6485 347.397 27.5456 347.746 27.5454C347.984 27.5453 348.22 27.593 348.439 27.6857C348.658 27.7784 348.856 27.9142 349.022 28.0851C349.188 28.2559 349.318 28.4583 349.403 28.6803C349.489 28.9022 349.53 29.1392 349.523 29.3771Z" fill="#063F6A"/>
<path d="M381.266 41.7302C379.888 38.3286 374.876 38.9759 373.306 42.7218" stroke="#F4A789" stroke-width="0.977792" stroke-linecap="round" stroke-linejoin="round"/>
<path d="M374.351 41.1107C376.748 39.6509 380.852 45.1321 374.351 46.702" stroke="#F4A789" stroke-width="0.977792" stroke-linecap="round" stroke-linejoin="round"/>
<path d="M375.77 49.649C374.192 49.2207 372.711 48.4963 371.404 47.5144" stroke="#F4A789" stroke-width="0.977792" stroke-linecap="round" stroke-linejoin="round"/>
<path d="M353.404 26.3475C353.404 32.9166 350.402 33.6328 347.372 34.8309C344.852 35.8225 345.651 38.6044 346.243 39.4995" stroke="#F4A789" stroke-width="0.977792" stroke-linecap="round" stroke-linejoin="round"/>
<path d="M356.697 43.7824C351.56 43.7824 347.663 43.4932 347.663 43.4932C347.663 43.4932 349.949 49.9796 352.869 49.6491C355.788 49.3186 356.697 43.7824 356.697 43.7824Z" fill="white" stroke="#F4A789" stroke-width="0.977792" stroke-linecap="round" stroke-linejoin="round"/>
<path d="M357.844 212.058L420.008 173.153L476.476 263.381L414.312 302.286L357.844 212.058Z" fill="#DDDDDD"/>
<path d="M367.397 216.184L419.545 183.548L466.925 259.254L414.777 291.89L367.397 216.184Z" fill="#F9F9F9"/>
<path d="M379.737 194.28C379.122 193.76 378.592 193.146 378.167 192.462C377.656 191.623 377.315 190.691 377.164 189.72C377.014 188.75 377.055 187.759 377.287 186.804C377.52 185.849 377.937 184.95 378.517 184.157C379.097 183.363 379.827 182.692 380.666 182.181C381.506 181.67 382.437 181.33 383.408 181.179C384.379 181.028 385.37 181.07 386.324 181.302C387.279 181.534 388.179 181.952 388.972 182.532C389.765 183.111 390.436 183.842 390.947 184.681C391.36 185.368 391.662 186.117 391.842 186.898L401.276 181.155L408.492 192.985L377.506 211.866L370.303 200.023L379.737 194.28Z" fill="#DDDDDD" stroke="#DDDDDD" stroke-width="1.30831" stroke-linecap="round" stroke-linejoin="round"/>
<path d="M383.698 192.067C381.762 191.594 380.577 189.641 381.051 187.705C381.524 185.769 383.478 184.584 385.413 185.058C387.349 185.532 388.534 187.485 388.06 189.42C387.587 191.356 385.634 192.541 383.698 192.067Z" fill="#F9F9F9"/>
<path d="M416.562 197.97L381.018 220.226" stroke="#DDDDDD" stroke-width="1.30831" stroke-linecap="round" stroke-linejoin="round"/>
<path d="M420.117 204.25L384.559 226.506" stroke="#DDDDDD" stroke-width="1.30831" stroke-linecap="round" stroke-linejoin="round"/>
<path d="M423.656 210.531L395.948 227.869" stroke="#DDDDDD" stroke-width="1.30831" stroke-linecap="round" stroke-linejoin="round"/>
<path d="M415.627 238.102C399.004 246.365 393.592 249.229 392.408 250.234C389.006 253.25 389.392 258.842 389.392 258.842C389.392 258.842 382.093 262.574 381.349 264.681C380.605 266.788 384.406 270.796 386.858 270.589C386.858 270.589 389.791 273.853 392.435 273.646C392.435 273.646 393.399 277.971 396.994 278.177C396.994 278.177 397.407 281.868 402.502 280.808C407.598 279.747 429.646 261.94 429.646 261.94L415.627 238.102Z" fill="#FEBD9D"/>
<path d="M413.768 239.024C415.255 242.178 423.532 257.506 427.071 264.02C428.049 265.838 428.669 266.967 428.669 266.967C428.669 266.967 451.764 257.754 472.339 249.174C484.582 244.037 495.93 239.134 500.984 236.532C504.218 234.918 507.334 233.077 510.307 231.023C517.014 226.313 521.71 220.942 523.404 214.497C525.098 208.052 523.776 200.353 518.267 191.278C516.823 188.955 514.935 186.94 512.711 185.347C510.488 183.755 507.972 182.616 505.308 181.995C502.446 181.283 499.495 180.995 496.549 181.142H495.558C494.511 181.142 493.451 181.334 492.39 181.5C492.074 181.5 491.757 181.596 491.44 181.665L490.393 181.858L488.631 182.271H488.562L487.625 182.519L487.198 182.643C486.827 182.739 486.468 182.849 486.11 182.973L485.022 183.318L483.934 183.703L482.819 184.13C480.992 184.839 479.208 185.653 477.476 186.568C477.159 186.719 476.842 186.871 476.539 187.05L475.162 187.807L474.019 188.482H473.936C472.435 189.391 470.934 190.382 469.419 191.47L468.276 192.311C466.376 193.688 464.461 195.313 462.575 197.034C440.361 217.348 414.194 238.349 413.52 238.349C413.506 238.432 413.575 238.639 413.768 239.024Z" fill="#D7E3F6"/>
<path d="M472.339 249.174C484.582 244.037 495.93 239.134 500.984 236.532C504.218 234.918 507.334 233.077 510.307 231.023C517.014 226.313 521.71 220.942 523.404 214.497C525.098 208.052 523.776 200.353 518.267 191.278C516.823 188.955 514.935 186.94 512.711 185.347C510.488 183.755 507.972 182.616 505.308 181.995C505.721 189.102 508.159 196.18 512.194 200.973C514.322 203.456 515.442 206.647 515.332 209.916C515.223 213.184 513.892 216.293 511.602 218.628C507.952 222.595 501.741 225.115 493.465 224.013C490.063 223.586 486.716 225.156 483.7 227.883C478.123 232.951 473.688 241.985 472.339 249.174Z" fill="#A7BEE1"/>
<path d="M497.541 181.128C487.075 181.265 474.501 186.306 462.588 197.185C440.292 217.581 414.016 238.611 413.533 238.501" stroke="#A7BEE1" stroke-width="0.977792" stroke-linecap="round" stroke-linejoin="round"/>
<path d="M424.826 238.831C428.214 245.497 434.535 257.423 434.535 257.423" stroke="#A7BEE1" stroke-width="0.977792" stroke-linecap="round" stroke-linejoin="round"/>
<path d="M392.407 250.234C389.006 253.251 389.391 258.842 389.391 258.842C389.391 258.842 382.092 262.574 381.349 264.681C380.605 266.788 384.406 270.796 386.857 270.589C386.857 270.589 389.791 273.853 392.435 273.646C392.435 273.646 393.399 277.971 396.993 278.177C396.993 278.177 397.406 281.868 402.502 280.808" stroke="#F4A789" stroke-width="0.977792" stroke-linecap="round" stroke-linejoin="round"/>
<path d="M389.019 259.048L395.809 255.812" stroke="#F4A789" stroke-width="0.977792" stroke-linecap="round" stroke-linejoin="round"/>
<path d="M386.829 270.589C389.072 269.673 391.265 268.639 393.398 267.49" stroke="#F4A789" stroke-width="0.977792" stroke-linecap="round" stroke-linejoin="round"/>
<path d="M392.407 273.646C393.778 273.083 395.081 272.367 396.291 271.512" stroke="#F4A789" stroke-width="0.977792" stroke-linecap="round" stroke-linejoin="round"/>
<rect y="281" width="670" height="160" rx="10" fill="#F5F7FA"/>
</g>
<defs>
<clipPath id="clip0_1116_2464">
<rect width="670" height="441" fill="white" transform="matrix(-1 0 0 1 670 0)"/>
</clipPath>
</defs>
</svg>
