<svg width="933" height="524" viewBox="0 0 933 524" fill="none" xmlns="http://www.w3.org/2000/svg">
<path fill-rule="evenodd" clip-rule="evenodd" d="M498.346 27.9961C494.591 30.549 491.12 32.6381 490.631 32.6381C490.142 32.6381 488.664 34.4641 487.347 36.6959C486.03 38.9276 484.281 40.7571 483.463 40.7606C482.644 40.7652 480.494 41.5385 478.686 42.4811C474.018 44.9146 438.838 53.5065 433.541 53.5065C427.472 53.5065 421.976 56.0235 420.008 59.7033C418.646 62.2504 417.558 62.7814 413.705 62.7814C411.142 62.7814 405.881 63.5871 402.011 64.5714C383.146 69.3712 375.772 71.5542 368.444 74.5048C361.009 77.4982 359.501 77.693 346.009 77.4055C329.439 77.0507 329.141 77.2142 327.642 87.4977C326.932 92.3716 327.137 93.3014 329.25 94.7808C331.332 96.2369 331.485 96.885 330.345 99.3869C329.229 101.835 329.374 102.628 331.256 104.381C332.488 105.527 335.663 107.076 338.313 107.822C340.962 108.57 344.307 110.134 345.747 111.299C350.073 114.801 347.666 116.239 338.097 115.873C329.726 115.551 329.465 115.627 325.338 119.596C318.669 126.008 318.448 126.97 322.131 133.518C326.054 140.494 325.434 142.019 316.958 146.234C310.343 149.524 306.236 152.881 306.236 154.997C306.236 155.78 307.501 157.251 309.047 158.264C310.594 159.277 312.207 161.201 312.633 162.542C313.059 163.882 315.578 165.957 318.231 167.155C320.884 168.352 324.36 170.096 325.955 171.028C327.55 171.961 330.558 173.356 332.64 174.128C337.317 175.864 338.18 178.818 336.447 187.162C334.931 194.458 332.063 197.646 325.375 199.468C318.306 201.394 312.709 201.029 309.399 198.426C305.271 195.18 303.489 195.508 299.935 200.165C296.556 204.593 294.741 205.076 290.825 202.595C289.412 201.7 285.995 200.603 283.232 200.159C277.975 199.313 270.276 193.733 270.276 190.77C270.276 187.369 265.794 184.514 260.456 184.514C256.265 184.514 254.597 185.178 251.716 187.992C247.536 192.076 245.596 192.299 241.593 189.151C237.988 186.317 230.267 186.079 224.13 188.613C221.758 189.592 217.419 192.983 214.488 196.149C207.291 203.921 202.35 204.007 193.338 196.514C187.953 192.038 182.117 193.418 182.117 199.169C182.117 200.599 181.537 202.125 180.827 202.564C179.343 203.481 177.522 201.087 177.495 198.184C177.467 195.049 168.363 183.704 164.639 182.163C162.779 181.393 160.162 178.992 158.824 176.827C155.483 171.423 153.612 170.685 143.949 170.95C135.715 171.176 135.51 171.112 132.348 167.25C129.474 163.738 128.699 163.398 125.091 164.075C122.869 164.492 119.292 166.13 117.14 167.717C112.217 171.347 110.14 171.343 106.718 167.703C101.224 161.858 90.5054 164.785 85.8979 173.39C84.2438 176.478 72.7194 183.502 66.9542 184.933C64.5519 185.53 63.5474 186.642 63.0184 189.286C62.5219 191.764 60.5187 194.192 56.3833 197.322C46.8506 204.538 46.1221 205.364 46.8633 208.097C47.2368 209.473 48.1834 213.656 48.9687 217.393C50.3456 223.947 50.3004 224.266 47.6892 226.378C46.201 227.584 43.4681 228.569 41.6167 228.569C38.7794 228.569 37.5904 227.522 34.049 221.903C28.3361 212.84 25.5904 210.02 22.4828 210.02C19.2476 210.02 16.2398 214.067 16.2398 218.419C16.2398 220.545 14.719 223.356 11.8295 226.566C8.90055 229.822 6.91582 233.515 5.9194 237.567C4.54017 243.172 4.61557 244.044 6.8497 248.327C9.93642 254.245 9.8993 255.48 6.51215 259.503C3.17023 263.473 0 270.75 0 274.451C0 276.065 1.22494 277.994 3.04148 279.237C10.0605 284.046 11.5998 286.247 11.5998 291.479C11.5998 299.359 13.334 300.833 22.3076 300.587C31.2186 300.341 34.8343 301.711 37.5893 306.371C38.6959 308.245 40.8442 310.59 42.3614 311.585C43.8799 312.578 45.7289 315.305 46.4689 317.645C47.2102 319.983 49.1033 324.144 50.675 326.891C53.7629 332.283 53.0217 335.23 48.5778 335.23C47.3795 335.23 46.3993 335.966 46.3993 336.866C46.3993 339.109 52.8523 344.354 56.6385 345.189C58.3437 345.564 61.4258 346.384 63.4859 347.01C67.9356 348.361 68.823 347.913 74.6183 341.4C79.6839 335.706 91.9414 329.38 102.403 327.058C108.663 325.669 109.326 325.731 112.384 327.991C116.991 331.396 124.506 333.169 130.513 332.269C134.6 331.656 136.42 331.996 139.614 333.97C145.34 337.507 146.627 342.564 143.412 348.91C142.541 350.632 141.563 355.483 141.241 359.69C140.169 373.651 136.863 376.921 123.791 376.949C113.802 376.971 108.773 379.074 105.207 384.72C103.66 387.17 101.54 389.882 100.496 390.748C97.862 392.933 98.087 394.049 102.079 398.592C103.993 400.771 105.558 403.001 105.558 403.548C105.558 405.543 101.849 405.891 98.5824 404.203C93.5109 401.582 85.0604 401.911 83.5188 404.791C81.657 408.267 83.9434 411.46 89.3303 412.91C93.7568 414.101 94.1976 414.675 100.27 427.152C103.75 434.301 106.754 441.454 106.948 443.045C107.189 445.042 108.558 446.534 111.358 447.854C113.591 448.908 116.561 451.324 117.958 453.223C120.056 456.076 121.614 456.817 126.917 457.479C130.448 457.92 134.526 459.25 135.978 460.433L138.618 462.585L135.929 469.918C132.122 480.3 131.776 482.255 133.404 484.214C135.377 486.591 135.791 486.483 141.618 482.059C147.932 477.265 154.656 474.601 162.883 473.635C171.164 472.662 173.8 473.445 180.761 478.945C184.833 482.161 187.889 486.021 190.903 491.752C197.254 503.833 203.159 507.269 209.698 502.691L212.277 500.887V447.17C212.277 397.697 212.437 393.265 214.307 391.061C216.752 388.178 266.961 371.961 271.436 372.608C273.031 372.839 285.509 381.087 299.164 390.938C323.099 408.204 324.382 409.335 334.854 422.342C340.827 429.763 346.794 436.116 348.115 436.461C349.433 436.806 355.819 436.045 362.305 434.771C372.099 432.845 376.557 432.584 388.644 433.23C400.629 433.87 403.977 433.68 407.636 432.152C410.078 431.132 413.241 430.297 414.662 430.297C417.977 430.297 427.939 441.596 431.27 449.137C432.609 452.166 434.218 454.644 434.845 454.644C439.348 454.644 441.142 464.994 438.289 474.511C436.496 480.494 438.29 484.576 443.143 485.546C447.864 486.49 450.074 489.969 450.074 496.459C450.074 504.303 452.097 505.637 465.308 506.492C475.129 507.128 476.453 507.495 479.353 510.393C481.112 512.152 482.553 514.63 482.553 515.897C482.553 518.937 489.159 524.421 492.283 523.974C494.232 523.697 494.742 522.796 494.779 519.567C494.818 516.128 495.991 514.362 502.482 507.974C512.22 498.391 517.191 494.495 522.53 492.266C524.873 491.287 528.972 488.49 531.64 486.049C534.309 483.608 537.797 481.218 539.392 480.738C543.526 479.494 544.646 478.385 548.561 471.65C554.502 461.433 555.848 460.244 562.707 459.152C569.601 458.056 581.769 460.661 590.47 465.097C592.95 466.362 596.838 467.396 599.111 467.396C603.593 467.396 603.972 466.887 606.882 456.962C608.121 452.734 609.244 451.338 612.804 449.6C621.098 445.551 625.36 445.75 633.139 450.549C645.176 457.974 651.005 459.351 658.018 456.422C660.765 455.274 664.009 454.95 667.993 455.42C671.402 455.824 676.055 455.515 679.003 454.69C683.212 453.513 686.353 453.59 696.844 455.127C703.848 456.154 711.87 456.917 714.674 456.823C721.959 456.578 731.474 459.771 737.034 464.325C739.668 466.483 743.64 468.646 745.859 469.133C748.079 469.62 751.054 470.778 752.471 471.706C756.108 474.088 757.469 472.705 757.469 466.625C757.469 462.695 758.207 460.479 760.369 457.911C761.964 456.016 763.269 453.815 763.269 453.018C763.269 452.222 764.574 450.345 766.169 448.847C770.025 445.226 769.895 441.27 765.507 428.696C763.019 421.565 761.74 415.333 761.266 408.026L760.588 397.566L756.633 395.914C751.049 393.583 752.01 390.775 759.22 388.363C762.404 387.299 766.432 386.385 768.172 386.334C769.912 386.283 774.803 384.937 779.04 383.343C787.942 379.995 791.391 379.729 793.469 382.233C794.592 383.584 796.817 383.938 802.601 383.682C809.873 383.359 810.266 383.195 810.599 380.328C810.853 378.143 810.134 376.779 807.989 375.374C803.663 372.541 803.947 370.546 811.979 347.403C813.086 344.215 815.5 336.911 817.343 331.172C820.376 321.728 820.989 320.704 823.794 320.38C825.498 320.183 829.15 321.179 831.91 322.592C835.353 324.355 839.66 325.309 845.628 325.632C850.413 325.889 856.196 326.89 858.479 327.854C862.537 329.566 862.808 329.51 870.392 325.343C874.661 322.999 878.728 320.006 879.43 318.695C880.366 316.948 880.329 313.549 879.291 305.957C876.913 288.561 879.878 279.197 888.202 277.817C899.028 276.023 903.777 271.944 904.738 263.619C905.263 259.074 905.983 257.786 909.092 255.834C913.226 253.239 913.763 251.592 911.174 249.443C910.222 248.653 907.787 245.068 905.765 241.476C903.743 237.885 901.923 234.739 901.721 234.487C901.519 234.234 899.136 235.494 896.424 237.288C891.026 240.857 889.051 241.023 878.687 238.775L871.728 237.264L867.409 229.029C863.41 221.403 862.571 220.548 856.054 217.453C850.794 214.957 848.853 213.376 848.374 211.196C847.044 205.154 846.527 204.101 842.197 198.625C837.382 192.538 831.635 189.151 826.119 189.151C822.26 189.151 812.69 192.875 811.468 194.852C810.992 195.622 806.057 196.107 798.714 196.107C787.317 196.107 786.646 195.97 784.893 193.297C783.88 191.752 782.097 190.184 780.931 189.814C779.765 189.444 778.168 187.362 777.381 185.188C775.525 180.061 770.06 177.802 765.976 180.476C764.487 181.451 763.269 183.209 763.269 184.384C763.269 188.971 756.251 194.749 753.074 192.776C752.43 192.376 744.65 177.702 735.786 160.167C710.246 109.645 707.946 106.336 685.218 87.4015C674.08 78.1231 672.702 75.059 678.081 71.5368C680.065 70.2372 680.932 68.7486 680.691 67.0559C680.378 64.852 679.725 64.5714 675.69 64.9123C673.138 65.1279 669.745 66.0241 668.15 66.9029C666.555 67.7828 662.506 69.8187 659.151 71.4279C655.797 73.037 650.802 76.7006 648.053 79.5689C645.023 82.7281 641.6 85.0735 639.361 85.521C637.33 85.9268 633.271 88.3672 630.341 90.9445C625.302 95.3778 624.812 95.5575 621.271 94.2776C616.3 92.4818 612.387 92.6232 609.64 94.7008C602.11 100.392 599.329 91.8951 606.091 83.8619C607.686 81.9664 608.991 80.1671 608.991 79.8633C608.991 79.5584 606.933 79.3636 604.42 79.4297C601.366 79.5097 598.686 78.6901 596.346 76.9626C592.698 74.266 587.607 73.5367 586.372 75.5343C585.206 77.4194 582.52 76.8594 581.797 74.579C581.428 73.4162 580.046 71.3073 578.727 69.8929C576.102 67.0768 574.381 67.2345 566.962 70.9746C564.58 72.1756 561.97 72.9536 561.162 72.7043C560.353 72.4539 558.245 71.9322 556.478 71.545L553.262 70.8401L554.018 61.7832C554.622 54.55 554.405 52.1628 552.942 49.9276C551.935 48.3891 550.641 44.1274 550.066 40.458C548.454 30.1629 544.042 26.9167 537.072 30.8991C533.227 33.0961 528.433 33.0671 526.58 30.8353C524.221 27.9949 520.715 26.4738 514.453 25.5742C511.263 25.1162 507.87 24.4287 506.913 24.0473C505.907 23.6473 502.291 25.3145 498.346 27.9961Z" fill="#A7BEE1"/>
<path fill-rule="evenodd" clip-rule="evenodd" d="M518.596 4.0078C514.842 6.5607 511.37 8.64986 510.881 8.64986C510.392 8.64986 508.914 10.4758 507.598 12.7076C506.28 14.9394 504.532 16.7688 503.713 16.7723C502.894 16.7769 500.744 17.5502 498.936 18.4928C494.268 20.9263 459.088 29.5183 453.792 29.5183C447.723 29.5183 442.227 32.0352 440.258 35.715C438.896 38.2621 437.808 38.7931 433.955 38.7931C431.392 38.7931 426.131 39.5989 422.261 40.5831C403.396 45.3829 396.022 47.5659 388.695 50.5165C381.259 53.51 379.751 53.7047 366.259 53.4172C349.689 53.0625 349.391 53.2259 347.892 63.5094C347.182 68.3833 347.388 69.3131 349.5 70.7925C351.582 72.2486 351.735 72.8967 350.595 75.3986C349.479 77.8472 349.624 78.6402 351.507 80.3931C352.739 81.5385 355.913 83.0874 358.563 83.8341C361.212 84.5818 364.558 86.1458 365.997 87.311C370.323 90.8122 367.916 92.251 358.347 91.8846C349.977 91.5623 349.716 91.6388 345.588 95.6073C338.92 102.02 338.698 102.982 342.381 109.53C346.304 116.506 345.685 118.03 337.209 122.246C330.593 125.536 326.486 128.892 326.486 131.008C326.486 131.792 327.751 133.263 329.298 134.275C330.844 135.289 332.457 137.213 332.883 138.553C333.309 139.894 335.828 141.969 338.481 143.166C341.134 144.364 344.611 146.108 346.206 147.04C347.801 147.973 350.808 149.368 352.891 150.14C357.568 151.875 358.431 154.83 356.698 163.173C355.182 170.469 352.313 173.657 345.626 175.48C338.557 177.406 332.96 177.04 329.649 174.438C325.521 171.192 323.739 171.52 320.185 176.177C316.806 180.604 314.992 181.088 311.075 178.607C309.663 177.712 306.245 176.615 303.482 176.171C298.225 175.325 290.526 169.745 290.526 166.781C290.526 163.381 286.044 160.525 280.706 160.525C276.515 160.525 274.847 161.19 271.967 164.004C267.786 168.088 265.847 168.311 261.843 165.163C258.238 162.328 250.517 162.091 244.38 164.625C242.008 165.603 237.669 168.995 234.738 172.161C227.542 179.933 222.6 180.019 213.588 172.526C208.204 168.05 202.368 169.429 202.368 175.181C202.368 176.61 201.788 178.137 201.078 178.575C199.593 179.492 197.772 177.098 197.745 174.195C197.717 171.06 188.614 159.716 184.889 158.174C183.03 157.404 180.413 155.003 179.074 152.839C175.733 147.435 173.862 146.697 164.2 146.962C155.965 147.188 155.761 147.123 152.599 143.261C149.724 139.75 148.949 139.41 145.342 140.087C143.119 140.503 139.542 142.142 137.39 143.729C132.467 147.359 130.391 147.355 126.969 143.715C121.474 137.869 110.756 140.797 106.148 149.401C104.494 152.49 92.9696 159.513 87.2045 160.945C84.8022 161.542 83.7976 162.654 83.2687 165.297C82.7722 167.776 80.7689 170.204 76.6336 173.334C67.1008 180.55 66.3723 181.375 67.1136 184.109C67.4871 185.485 68.4336 189.668 69.2189 193.405C70.5958 199.959 70.5506 200.277 67.9395 202.39C66.4512 203.595 63.7183 204.581 61.867 204.581C59.0296 204.581 57.8407 203.534 54.2992 197.915C48.5863 188.852 45.8406 186.031 42.733 186.031C39.4978 186.031 36.49 190.079 36.49 194.431C36.49 196.557 34.9693 199.367 32.0798 202.578C29.1508 205.834 27.1661 209.527 26.1696 213.579C24.7904 219.184 24.8658 220.056 27.0999 224.339C30.1867 230.257 30.1495 231.492 26.7624 235.515C23.4205 239.485 20.2502 246.762 20.2502 250.462C20.2502 252.076 21.4752 254.005 23.2917 255.248C30.3108 260.057 31.8501 262.259 31.8501 267.491C31.8501 275.371 33.5843 276.845 42.5579 276.599C51.4689 276.353 55.0845 277.722 57.8395 282.383C58.9461 284.256 61.0944 286.602 62.6117 287.597C64.1301 288.59 65.9791 291.317 66.7192 293.657C67.4604 295.995 69.3535 300.156 70.9253 302.902C74.0132 308.295 73.2719 311.242 68.828 311.242C67.6298 311.242 66.6496 311.978 66.6496 312.877C66.6496 315.121 73.1026 320.366 76.8888 321.2C78.5939 321.576 81.676 322.396 83.7361 323.022C88.1858 324.373 89.0732 323.925 94.8685 317.412C99.9341 311.718 112.192 305.392 122.654 303.069C128.913 301.68 129.576 301.743 132.634 304.003C137.242 307.408 144.756 309.18 150.763 308.281C154.85 307.667 156.67 308.008 159.865 309.981C165.59 313.519 166.877 318.576 163.662 324.922C162.791 326.644 161.813 331.494 161.491 335.702C160.419 349.663 157.113 352.933 144.041 352.961C134.053 352.983 129.023 355.086 125.457 360.732C123.91 363.182 121.791 365.894 120.747 366.76C118.112 368.945 118.337 370.06 122.329 374.604C124.243 376.782 125.809 379.013 125.809 379.56C125.809 381.554 122.099 381.903 118.833 380.215C113.761 377.594 105.311 377.923 103.769 380.803C101.907 384.279 104.194 387.472 109.581 388.922C114.007 390.113 114.448 390.686 120.52 403.163C124 410.313 127.005 417.465 127.198 419.057C127.44 421.053 128.808 422.546 131.609 423.866C133.842 424.92 136.811 427.336 138.208 429.235C140.306 432.088 141.864 432.829 147.168 433.491C150.698 433.932 154.776 435.261 156.228 436.445L158.868 438.597L156.179 445.93C152.372 456.312 152.027 458.266 153.654 460.226C155.627 462.602 156.041 462.495 161.868 458.071C168.182 453.277 174.906 450.612 183.133 449.647C191.414 448.674 194.051 449.457 201.012 454.957C205.083 458.173 208.14 462.033 211.153 467.764C217.504 479.844 223.41 483.281 229.949 478.702L232.527 476.898V423.182C232.527 373.709 232.687 369.277 234.557 367.073C237.002 364.189 287.211 347.972 291.686 348.619C293.281 348.851 305.759 357.099 319.415 366.95C343.35 384.216 344.633 385.346 355.104 398.353C361.078 405.774 367.045 412.128 368.365 412.473C369.684 412.817 376.069 412.057 382.555 410.783C392.35 408.857 396.808 408.596 408.895 409.242C420.88 409.882 424.227 409.692 427.886 408.164C430.329 407.144 433.491 406.309 434.912 406.309C438.227 406.309 448.189 417.608 451.52 425.148C452.859 428.178 454.468 430.655 455.096 430.655C459.599 430.655 461.392 441.006 458.54 450.523C456.746 456.505 458.541 460.587 463.393 461.558C468.114 462.502 470.324 465.981 470.324 472.471C470.324 480.315 472.347 481.648 485.558 482.504C495.379 483.139 496.703 483.507 499.603 486.405C501.363 488.164 502.803 490.641 502.803 491.909C502.803 494.948 509.409 500.432 512.533 499.986C514.482 499.709 514.992 498.808 515.03 495.579C515.068 492.139 516.242 490.374 522.732 483.986C532.47 474.402 537.442 470.507 542.78 468.277C545.123 467.299 549.222 464.501 551.89 462.061C554.559 459.619 558.048 457.23 559.643 456.75C563.777 455.506 564.896 454.397 568.811 447.662C574.752 437.444 576.098 436.256 582.957 435.164C589.851 434.067 602.019 436.672 610.72 441.109C613.2 442.374 617.088 443.408 619.361 443.408C623.843 443.408 624.222 442.899 627.133 432.974C628.372 428.746 629.494 427.35 633.054 425.612C641.348 421.562 645.61 421.762 653.389 426.56C665.426 433.986 671.255 435.362 678.268 432.434C681.015 431.286 684.26 430.961 688.243 431.432C691.652 431.835 696.305 431.527 699.254 430.702C703.462 429.525 706.603 429.601 717.094 431.139C724.098 432.166 732.12 432.929 734.924 432.835C742.209 432.59 751.724 435.783 757.284 440.337C759.918 442.495 763.89 444.658 766.109 445.145C768.329 445.632 771.305 446.79 772.721 447.718C776.359 450.1 777.719 448.717 777.719 442.637C777.719 438.707 778.457 436.49 780.619 433.922C782.214 432.028 783.519 429.826 783.519 429.03C783.519 428.233 784.824 426.356 786.419 424.858C790.275 421.238 790.145 417.282 785.757 404.708C783.269 397.577 781.99 391.345 781.516 384.038L780.839 373.578L776.883 371.926C771.299 369.594 772.26 366.786 779.47 364.375C782.654 363.311 786.683 362.397 788.423 362.346C790.163 362.295 795.053 360.949 799.29 359.355C808.192 356.007 811.641 355.741 813.719 358.244C814.842 359.596 817.067 359.95 822.851 359.693C830.123 359.371 830.516 359.206 830.849 356.339C831.103 354.155 830.384 352.791 828.239 351.385C823.913 348.553 824.198 346.558 832.229 323.415C833.336 320.227 835.75 312.923 837.593 307.184C840.626 297.74 841.239 296.716 844.044 296.391C845.748 296.194 849.401 297.19 852.16 298.603C855.603 300.367 859.91 301.321 865.878 301.643C870.663 301.901 876.447 302.901 878.73 303.866C882.787 305.578 883.059 305.521 890.643 301.355C894.911 299.01 898.978 296.018 899.68 294.707C900.616 292.96 900.579 289.561 899.541 281.969C897.163 264.573 900.128 255.209 908.452 253.829C919.278 252.035 924.027 247.956 924.989 239.631C925.513 235.086 926.233 233.798 929.342 231.846C933.476 229.251 934.013 227.603 931.424 225.455C930.472 224.664 928.037 221.08 926.015 217.488C923.993 213.896 922.173 210.751 921.971 210.498C921.77 210.246 919.386 211.506 916.674 213.299C911.276 216.869 909.301 217.035 898.938 214.787L891.978 213.276L887.659 205.041C883.661 197.415 882.821 196.559 876.304 193.465C871.045 190.969 869.103 189.388 868.624 187.208C867.294 181.165 866.777 180.113 862.447 174.637C857.632 168.549 851.885 165.163 846.37 165.163C842.51 165.163 832.94 168.887 831.718 170.863C831.242 171.633 826.308 172.119 818.964 172.119C807.567 172.119 806.896 171.982 805.144 169.309C804.13 167.763 802.347 166.196 801.181 165.826C800.015 165.456 798.418 163.374 797.632 161.2C795.776 156.072 790.31 153.814 786.227 156.487C784.737 157.462 783.519 159.221 783.519 160.396C783.519 164.983 776.501 170.76 773.324 168.788C772.68 168.388 764.9 153.714 756.036 136.179C730.496 85.6566 728.196 82.3478 705.469 63.4132C694.331 54.1349 692.952 51.0707 698.331 47.5486C700.315 46.2489 701.183 44.7603 700.941 43.0676C700.628 40.8637 699.975 40.5832 695.941 40.924C693.389 41.1396 689.996 42.0358 688.401 42.9146C686.806 43.7946 682.756 45.8304 679.402 47.4396C676.047 49.0488 671.052 52.7123 668.303 55.5806C665.273 58.7398 661.85 61.0852 659.611 61.5327C657.58 61.9385 653.521 64.3789 650.591 66.9562C645.552 71.3895 645.063 71.5692 641.521 70.2893C636.551 68.4935 632.637 68.6349 629.89 70.7125C622.361 76.4038 619.579 67.9068 626.342 59.8737C627.937 57.9781 629.242 56.1788 629.242 55.8751C629.242 55.5701 627.184 55.3754 624.67 55.4415C621.616 55.5214 618.936 54.7018 616.597 52.9743C612.948 50.2777 607.857 49.5484 606.622 51.546C605.456 53.4311 602.771 52.8712 602.047 50.5907C601.678 49.4279 600.296 47.319 598.978 45.9046C596.353 43.0885 594.631 43.2462 587.212 46.9863C584.83 48.1874 582.22 48.9653 581.412 48.716C580.603 48.4656 578.496 47.9439 576.728 47.5567L573.512 46.8518L574.269 37.7949C574.872 30.5617 574.655 28.1746 573.192 25.9393C572.185 24.4009 570.891 20.1391 570.317 16.4697C568.704 6.17463 564.292 2.92844 557.323 6.91083C553.477 9.10781 548.683 9.07882 546.83 6.84706C544.471 4.00664 540.966 2.48557 534.703 1.58591C531.513 1.12796 528.12 0.440463 527.163 0.0590353C526.157 -0.340942 522.542 1.32621 518.596 4.0078Z" fill="#F5F7FA"/>
</svg>
