<svg width="479" height="586" viewBox="0 0 479 586" fill="none" xmlns="http://www.w3.org/2000/svg">
<rect y="72.9678" width="393" height="517" rx="20" transform="rotate(-7.44026 0 72.9678)" fill="#A7BEE1"/>
<g clip-path="url(#clip0_93_14962)">
<rect x="22.3291" y="50.8906" width="393" height="517" rx="20" transform="rotate(-7.44026 22.3291 50.8906)" fill="#F5F7FA"/>
<path d="M179.109 464.01L183.702 463.41L184.098 466.441L173.555 467.818L173.464 467.117C175.294 464.332 176.594 462.306 177.364 461.039C178.147 459.756 178.657 458.784 178.893 458.125C179.144 457.463 179.234 456.86 179.163 456.318C179.094 455.79 178.881 455.388 178.523 455.113C178.165 454.837 177.729 454.733 177.216 454.8C176.689 454.869 176.28 455.091 175.992 455.466C175.717 455.824 175.614 456.275 175.685 456.818L175.721 457.089L172.486 457.512L172.444 457.195C172.261 455.792 172.564 454.587 173.353 453.579C174.141 452.571 175.282 451.969 176.775 451.774C177.741 451.648 178.634 451.739 179.457 452.045C180.277 452.337 180.946 452.817 181.463 453.486C181.98 454.155 182.297 454.942 182.415 455.847C182.541 456.812 182.38 457.869 181.932 459.016C181.483 460.164 180.543 461.828 179.109 464.01ZM189.987 455.709C191.556 455.505 192.906 455.804 194.039 456.607C195.171 457.41 195.831 458.528 196.018 459.961C196.209 461.424 195.864 462.711 194.981 463.824C194.097 464.921 192.908 465.567 191.415 465.762C190.419 465.892 189.487 465.799 188.617 465.483C187.761 465.15 187.057 464.636 186.506 463.941C185.953 463.231 185.607 462.402 185.468 461.454L188.748 461.025C188.798 461.402 188.925 461.731 189.13 462.011C189.351 462.289 189.623 462.499 189.949 462.64C190.287 462.765 190.645 462.802 191.022 462.753C191.595 462.678 192.044 462.42 192.37 461.979C192.709 461.52 192.839 460.989 192.761 460.386C192.676 459.738 192.396 459.237 191.92 458.885C191.445 458.533 190.883 458.4 190.234 458.484L186.004 459.037L185.656 458.668L185.501 450.957L193.645 449.893L194.023 452.789L188.435 453.519L188.471 455.907L189.987 455.709ZM204.738 464.022C203.502 464.184 202.382 464.008 201.379 463.494C200.376 462.981 199.549 462.169 198.898 461.057C198.247 459.946 197.817 458.598 197.611 457.015C197.295 454.602 197.59 452.63 198.495 451.101C199.413 449.554 200.814 448.658 202.7 448.412C204.585 448.166 206.162 448.673 207.431 449.934C208.698 451.18 209.49 453.009 209.805 455.422C210.118 457.82 209.816 459.793 208.898 461.339C207.995 462.884 206.608 463.778 204.738 464.022ZM202.059 460.069C202.663 460.819 203.425 461.133 204.345 461.013C205.265 460.893 205.913 460.394 206.29 459.517C206.664 458.624 206.751 457.409 206.55 455.87C206.347 454.317 205.943 453.158 205.336 452.393C204.746 451.627 203.998 451.303 203.093 451.421C202.173 451.541 201.518 452.048 201.129 452.943C200.752 453.82 200.666 455.036 200.868 456.589C201.071 458.143 201.468 459.303 202.059 460.069ZM219.077 462.15C217.84 462.311 216.72 462.135 215.718 461.622C214.715 461.109 213.888 460.296 213.236 459.185C212.585 458.073 212.156 456.726 211.949 455.142C211.634 452.729 211.929 450.758 212.834 449.228C213.751 447.682 215.153 446.786 217.038 446.539C218.923 446.293 220.501 446.801 221.77 448.061C223.037 449.307 223.828 451.137 224.143 453.55C224.456 455.948 224.154 457.92 223.236 459.467C222.333 461.011 220.947 461.905 219.077 462.15ZM216.398 458.197C217.002 458.946 217.764 459.261 218.684 459.141C219.604 459.021 220.252 458.522 220.628 457.644C221.003 456.752 221.089 455.536 220.888 453.998C220.686 452.444 220.281 451.285 219.675 450.521C219.084 449.754 218.336 449.43 217.431 449.548C216.511 449.668 215.856 450.176 215.467 451.07C215.091 451.948 215.004 453.163 215.207 454.717C215.41 456.27 215.807 457.43 216.398 458.197ZM236.584 450.36L236.983 453.415L233.227 453.905L233.747 457.887L230.512 458.309L229.992 454.328L226.214 454.821L225.815 451.767L229.593 451.273L229.088 447.405L232.323 446.982L232.829 450.851L236.584 450.36ZM261.526 456.33L258.337 456.746L256.245 449.542L253.43 457.41L252.797 457.493L248.055 450.611L247.884 458.111L244.695 458.528L245.135 446.045L247.963 445.676L252.419 452.135L255.112 444.743L257.918 444.376L261.526 456.33ZM272.094 442.502L274.56 442.18L276.155 454.396L273.554 454.736L273.14 453.686C272.15 454.797 270.894 455.452 269.37 455.651C267.53 455.891 265.92 455.48 264.539 454.418C263.17 453.339 262.365 451.872 262.123 450.016C261.883 448.176 262.286 446.567 263.333 445.188C264.395 443.806 265.846 442.996 267.686 442.755C269.24 442.552 270.64 442.876 271.886 443.726L272.094 442.502ZM266.712 451.856C267.428 452.407 268.261 452.62 269.212 452.496C270.177 452.37 270.935 451.949 271.486 451.233C272.036 450.517 272.249 449.676 272.123 448.711C271.996 447.745 271.575 446.987 270.859 446.437C270.143 445.886 269.31 445.673 268.36 445.797C267.726 445.879 267.173 446.105 266.699 446.474C266.239 446.825 265.899 447.276 265.68 447.826C265.458 448.361 265.389 448.946 265.471 449.579C265.597 450.545 266.011 451.303 266.712 451.856ZM287.762 440.479L288.149 443.442L284.167 443.962L285.376 453.215L282.141 453.638L280.932 444.385L276.951 444.905L276.564 441.941L287.762 440.479ZM302.14 444.768C302.181 445.084 302.201 445.412 302.199 445.749L292.969 446.955C293.213 447.766 293.621 448.365 294.193 448.751C294.778 449.119 295.478 449.25 296.292 449.144C296.85 449.071 297.34 448.884 297.76 448.584C298.179 448.268 298.489 447.875 298.688 447.404L302.172 446.949C301.893 448.336 301.261 449.492 300.278 450.418C299.294 451.344 298.094 451.9 296.676 452.085C294.866 452.321 293.277 451.9 291.909 450.821C290.541 449.741 289.738 448.289 289.499 446.464C289.405 445.74 289.412 445.034 289.522 444.345C289.646 443.653 289.863 443.019 290.171 442.442C290.494 441.863 290.887 441.351 291.351 440.907C291.812 440.448 292.354 440.071 292.975 439.775C293.596 439.479 294.268 439.284 294.992 439.189C296.214 439.03 297.345 439.174 298.385 439.621C299.44 440.066 300.288 440.745 300.929 441.658C301.585 442.57 301.988 443.606 302.14 444.768ZM295.358 441.995C294.619 442.091 294.02 442.377 293.56 442.851C293.116 443.323 292.85 443.933 292.764 444.68L298.669 443.909C298.453 443.431 298.18 443.045 297.85 442.751C297.518 442.441 297.137 442.223 296.706 442.095C296.29 441.965 295.841 441.932 295.358 441.995ZM310.329 437.187C312.169 436.946 313.772 437.358 315.138 438.422C316.52 439.484 317.331 440.943 317.574 442.798C317.816 444.653 317.407 446.279 316.347 447.675C315.285 449.056 313.841 449.866 312.016 450.105C310.764 450.268 309.596 450.075 308.512 449.527L309.174 454.594L305.871 455.026L303.7 438.397L305.894 438.111L306.604 439.146C307.564 438.038 308.806 437.385 310.329 437.187ZM308.815 446.381C309.531 446.932 310.364 447.145 311.314 447.021C312.28 446.895 313.038 446.474 313.588 445.758C314.139 445.041 314.351 444.201 314.225 443.235C314.143 442.602 313.924 442.047 313.571 441.572C313.217 441.097 312.766 440.749 312.215 440.53C311.68 440.308 311.096 440.239 310.462 440.321C309.829 440.404 309.275 440.622 308.799 440.976C308.324 441.329 307.976 441.781 307.757 442.331C307.552 442.88 307.491 443.471 307.574 444.104C307.7 445.069 308.114 445.828 308.815 446.381ZM328.012 435.222L329.867 434.98L331.462 447.197L328.272 447.613L327.427 441.143L322.594 448.355L320.716 448.6L319.121 436.384L322.311 435.967L323.147 442.369L328.012 435.222ZM343.013 433.24L345.479 432.918L347.075 445.135L344.473 445.475L344.06 444.424C343.07 445.535 341.813 446.19 340.29 446.389C338.45 446.63 336.839 446.219 335.458 445.156C334.09 444.077 333.285 442.61 333.042 440.755C332.802 438.915 333.205 437.305 334.252 435.926C335.315 434.545 336.766 433.734 338.606 433.494C340.159 433.291 341.559 433.614 342.805 434.464L343.013 433.24ZM337.631 442.595C338.347 443.145 339.181 443.359 340.131 443.235C341.096 443.109 341.854 442.687 342.405 441.971C342.956 441.255 343.168 440.414 343.042 439.449C342.916 438.484 342.495 437.726 341.778 437.175C341.062 436.624 340.229 436.411 339.279 436.535C338.645 436.618 338.092 436.844 337.619 437.212C337.158 437.564 336.818 438.015 336.599 438.565C336.377 439.1 336.308 439.684 336.391 440.318C336.517 441.283 336.93 442.042 337.631 442.595ZM350.854 432.239L359.586 431.099L361.182 443.316L357.947 443.738L356.726 434.395L353.921 434.761L354.081 439.158C354.14 441.022 353.821 442.39 353.122 443.264C352.423 444.137 351.274 444.679 349.675 444.887L349.132 444.958L348.742 441.972L349.557 441.866C350.009 441.807 350.366 441.599 350.626 441.243C350.886 440.887 351.008 440.411 350.992 439.815L350.854 432.239ZM370.209 442.482C368.957 442.646 367.789 442.514 366.706 442.088C365.622 441.662 364.73 440.996 364.029 440.091C363.341 439.168 362.918 438.104 362.761 436.897C362.518 435.042 362.943 433.422 364.036 432.037C365.128 430.651 366.624 429.835 368.525 429.587C370.41 429.34 372.058 429.746 373.47 430.805C374.881 431.863 375.708 433.319 375.95 435.175C376.19 437.015 375.758 438.636 374.652 440.038C373.56 441.423 372.079 442.238 370.209 442.482ZM369.804 439.383C370.754 439.259 371.49 438.848 372.013 438.151C372.534 437.438 372.73 436.592 372.602 435.612C372.474 434.632 372.068 433.872 371.384 433.332C370.698 432.777 369.872 432.563 368.907 432.689C367.957 432.813 367.221 433.231 366.701 433.944C366.178 434.641 365.981 435.479 366.109 436.46C366.172 436.942 366.306 437.385 366.512 437.788C366.733 438.188 367.006 438.513 367.33 438.762C367.654 439.011 368.023 439.193 368.437 439.308C368.866 439.421 369.321 439.446 369.804 439.383ZM387.061 433.333C387.652 433.516 388.131 433.837 388.498 434.295C388.878 434.737 389.11 435.281 389.194 435.93C389.33 436.971 389.075 437.894 388.429 438.699C387.795 439.487 386.921 439.954 385.804 440.1L379.131 440.972L377.535 428.755L384.141 427.892C385.182 427.756 386.072 427.939 386.813 428.441C387.566 428.925 388.002 429.62 388.12 430.525C388.191 431.068 388.129 431.59 387.934 432.091C387.752 432.575 387.46 432.989 387.061 433.333ZM384.956 431.49C384.925 431.249 384.845 431.052 384.718 430.9C384.589 430.733 384.42 430.617 384.212 430.552C384.018 430.47 383.8 430.445 383.558 430.477L381.092 430.799L381.4 433.151L383.866 432.829C384.228 432.782 384.507 432.631 384.704 432.375C384.915 432.117 385 431.822 384.956 431.49ZM384.647 437.582C385.055 437.529 385.365 437.381 385.579 437.138C385.791 436.881 385.872 436.563 385.823 436.186C385.771 435.794 385.61 435.501 385.339 435.306C385.069 435.111 384.73 435.04 384.322 435.094L381.698 435.436L382.023 437.925L384.647 437.582ZM211.845 490.503C212.437 490.686 212.916 491.007 213.282 491.466C213.662 491.907 213.894 492.452 213.979 493.1C214.115 494.141 213.86 495.064 213.213 495.869C212.58 496.658 211.705 497.125 210.589 497.271L203.915 498.142L202.32 485.925L208.926 485.063C209.967 484.927 210.857 485.11 211.598 485.611C212.351 486.096 212.787 486.79 212.905 487.695C212.976 488.238 212.914 488.76 212.718 489.261C212.536 489.745 212.245 490.159 211.845 490.503ZM209.741 488.661C209.709 488.42 209.63 488.223 209.503 488.071C209.374 487.904 209.205 487.787 208.997 487.723C208.802 487.641 208.584 487.615 208.343 487.647L205.877 487.969L206.184 490.322L208.65 490C209.012 489.953 209.292 489.801 209.488 489.545C209.7 489.287 209.784 488.993 209.741 488.661ZM209.432 494.753C209.839 494.699 210.15 494.552 210.363 494.309C210.575 494.051 210.656 493.734 210.607 493.357C210.556 492.965 210.395 492.671 210.124 492.476C209.853 492.282 209.514 492.211 209.107 492.264L206.483 492.607L206.808 495.095L209.432 494.753ZM228.177 495.319C226.926 495.482 225.758 495.351 224.675 494.925C223.591 494.499 222.699 493.833 221.998 492.928C221.31 492.005 220.887 490.94 220.729 489.734C220.487 487.879 220.912 486.259 222.004 484.873C223.097 483.488 224.593 482.672 226.493 482.423C228.379 482.177 230.027 482.583 231.438 483.641C232.85 484.7 233.677 486.156 233.919 488.011C234.159 489.851 233.727 491.473 232.621 492.875C231.529 494.26 230.048 495.075 228.177 495.319ZM227.773 492.219C228.723 492.095 229.459 491.685 229.982 490.988C230.502 490.275 230.699 489.429 230.571 488.449C230.443 487.468 230.037 486.708 229.352 486.169C228.666 485.614 227.841 485.4 226.876 485.526C225.925 485.65 225.19 486.068 224.669 486.78C224.147 487.478 223.95 488.316 224.078 489.297C224.141 489.779 224.275 490.222 224.481 490.624C224.702 491.025 224.975 491.35 225.299 491.599C225.623 491.848 225.992 492.03 226.405 492.145C226.834 492.258 227.29 492.282 227.773 492.219ZM247.581 489.287L249.074 489.092L249.845 494.997L246.859 495.387L246.493 492.582L238.846 493.58L239.212 496.386L236.203 496.779L235.432 490.874L236.699 490.709C237.118 490.27 237.361 489.495 237.431 488.381C237.515 487.266 237.485 484.923 237.341 481.352L246.391 480.17L247.581 489.287ZM240.615 483.87C240.737 485.741 240.76 487.149 240.684 488.094C240.608 489.04 240.418 489.763 240.115 490.262L244.346 489.71L243.534 483.489L240.615 483.87ZM258.132 478.637L261.435 478.206L263.03 490.422L259.727 490.854L259.116 486.171L254.682 486.75L255.293 491.433L251.99 491.864L250.395 479.647L253.698 479.216L254.289 483.741L258.723 483.162L258.132 478.637ZM272.055 489.589C270.803 489.752 269.635 489.621 268.552 489.195C267.468 488.769 266.576 488.103 265.875 487.198C265.187 486.275 264.764 485.21 264.607 484.004C264.364 482.149 264.789 480.529 265.882 479.143C266.974 477.758 268.47 476.942 270.371 476.693C272.256 476.447 273.904 476.853 275.316 477.911C276.727 478.97 277.554 480.426 277.796 482.281C278.036 484.121 277.604 485.743 276.498 487.145C275.406 488.53 273.925 489.345 272.055 489.589ZM271.65 486.489C272.6 486.365 273.336 485.955 273.859 485.258C274.38 484.545 274.576 483.699 274.448 482.719C274.32 481.738 273.914 480.978 273.23 480.439C272.544 479.884 271.718 479.67 270.753 479.796C269.803 479.92 269.067 480.338 268.547 481.05C268.024 481.747 267.827 482.586 267.955 483.567C268.018 484.049 268.152 484.492 268.358 484.894C268.579 485.295 268.852 485.62 269.176 485.869C269.5 486.118 269.869 486.3 270.283 486.415C270.711 486.528 271.167 486.552 271.65 486.489ZM296.816 486.01L293.626 486.427L291.534 479.222L288.719 487.09L288.086 487.173L283.345 480.291L283.174 487.792L279.984 488.208L280.424 475.726L283.252 475.356L287.708 481.815L290.401 474.423L293.207 474.056L296.816 486.01ZM320.477 482.92L317.287 483.337L315.196 476.132L312.381 484L311.748 484.083L307.006 477.201L306.835 484.702L303.646 485.118L304.086 472.636L306.914 472.266L311.37 478.725L314.063 471.333L316.869 470.966L320.477 482.92ZM333.717 474.933C333.759 475.249 333.779 475.576 333.777 475.914L324.546 477.12C324.79 477.931 325.198 478.53 325.77 478.916C326.355 479.284 327.055 479.415 327.869 479.309C328.427 479.236 328.917 479.049 329.338 478.749C329.757 478.433 330.066 478.04 330.265 477.569L333.749 477.114C333.47 478.501 332.839 479.657 331.855 480.583C330.872 481.509 329.671 482.065 328.253 482.25C326.444 482.486 324.855 482.065 323.487 480.986C322.118 479.906 321.315 478.454 321.077 476.629C320.982 475.905 320.99 475.199 321.099 474.51C321.224 473.818 321.44 473.184 321.748 472.607C322.071 472.028 322.465 471.516 322.928 471.072C323.39 470.613 323.931 470.236 324.552 469.94C325.173 469.644 325.845 469.449 326.569 469.354C327.791 469.195 328.922 469.339 329.962 469.786C331.017 470.231 331.865 470.91 332.506 471.823C333.162 472.735 333.566 473.771 333.717 474.933ZM326.936 472.16C326.197 472.256 325.597 472.542 325.138 473.016C324.693 473.488 324.428 474.098 324.341 474.845L330.246 474.074C330.03 473.596 329.757 473.21 329.427 472.916C329.096 472.606 328.714 472.388 328.283 472.26C327.868 472.13 327.418 472.097 326.936 472.16ZM342.595 480.377C341.389 480.534 340.251 480.399 339.183 479.971C338.128 479.526 337.248 478.843 336.545 477.923C335.857 477 335.434 475.935 335.277 474.729C335.039 472.904 335.458 471.3 336.535 469.917C337.612 468.533 339.079 467.721 340.934 467.478C342.517 467.272 343.935 467.554 345.186 468.327C346.436 469.084 347.31 470.197 347.808 471.666L344.528 472.094C344.179 471.541 343.72 471.134 343.148 470.871C342.59 470.591 341.979 470.494 341.316 470.581C340.426 470.697 339.721 471.111 339.2 471.824C338.695 472.534 338.504 473.364 338.628 474.314C338.752 475.264 339.158 476.024 339.846 476.594C340.534 477.164 341.316 477.392 342.19 477.277C342.854 477.191 343.42 476.94 343.887 476.527C344.353 476.098 344.685 475.533 344.885 474.832L348.211 474.397C348.112 475.99 347.552 477.337 346.529 478.436C345.505 479.521 344.194 480.168 342.595 480.377ZM359.284 465.427L359.671 468.391L355.689 468.911L356.898 478.164L353.663 478.586L352.454 469.333L348.473 469.853L348.086 466.89L359.284 465.427ZM373.662 469.716C373.703 470.033 373.723 470.36 373.721 470.698L364.491 471.903C364.735 472.715 365.143 473.314 365.715 473.699C366.3 474.068 367 474.199 367.814 474.092C368.372 474.019 368.862 473.833 369.282 473.532C369.701 473.217 370.011 472.824 370.21 472.353L373.694 471.898C373.415 473.284 372.783 474.44 371.8 475.366C370.816 476.293 369.616 476.848 368.198 477.033C366.388 477.27 364.799 476.848 363.431 475.769C362.063 474.69 361.26 473.238 361.021 471.413C360.927 470.689 360.934 469.982 361.044 469.293C361.168 468.602 361.385 467.968 361.693 467.391C362.016 466.812 362.409 466.3 362.873 465.856C363.334 465.397 363.876 465.019 364.497 464.724C365.118 464.428 365.79 464.232 366.514 464.138C367.736 463.978 368.867 464.122 369.907 464.569C370.962 465.014 371.81 465.694 372.451 466.607C373.107 467.518 373.51 468.555 373.662 469.716ZM366.88 466.943C366.141 467.04 365.542 467.325 365.082 467.799C364.638 468.272 364.372 468.881 364.286 469.629L370.191 468.858C369.975 468.38 369.702 467.994 369.372 467.699C369.04 467.39 368.659 467.171 368.228 467.043C367.812 466.914 367.363 466.88 366.88 466.943Z" fill="#4C5965"/>
<g clip-path="url(#clip1_93_14962)">
<rect x="49.2349" y="71.5806" width="108" height="108" rx="10" transform="rotate(-7.44026 49.2349 71.5806)" fill="#E3ECF9"/>
<path d="M55.1494 181.754L92.7436 115.736L127.797 148.804L144.369 126.101L189.811 162.841L55.1494 181.754Z" fill="#A7BEE1"/>
<circle cx="130.983" cy="106.791" r="11.5" transform="rotate(-7.44026 130.983 106.791)" fill="#A7BEE1"/>
</g>
<rect x="166.241" y="56.3003" width="108" height="108" rx="10" transform="rotate(-7.44026 166.241 56.3003)" fill="#E3ECF9"/>
<path d="M248.262 99.0192L213.938 83.7442C213.649 83.6155 213.33 83.5662 213.016 83.6013C212.701 83.6364 212.402 83.7546 212.148 83.9438C211.895 84.1331 211.696 84.3864 211.573 84.6779C211.45 84.9694 211.406 85.2884 211.447 85.6022L216.521 124.455C216.562 124.769 216.686 125.066 216.88 125.316C217.074 125.566 217.331 125.76 217.625 125.877C217.918 125.995 218.238 126.033 218.551 125.986C218.864 125.939 219.159 125.809 219.405 125.611L248.656 102.033C248.893 101.842 249.078 101.593 249.191 101.309C249.305 101.026 249.344 100.719 249.304 100.416C249.265 100.113 249.148 99.8261 248.965 99.5815C248.783 99.3369 248.541 99.1433 248.262 99.0192Z" fill="#A7BEE1"/>
<rect x="283.248" y="41.0205" width="108" height="108" rx="10" transform="rotate(-7.44026 283.248 41.0205)" fill="#E3ECF9"/>
<path d="M365.102 87.0904L358.037 88.013C357.1 88.1354 356.25 88.6249 355.674 89.3739C355.098 90.1229 354.843 91.07 354.965 92.0069L356.119 100.838C356.241 101.775 356.731 102.625 357.48 103.201C358.229 103.777 359.176 104.032 360.113 103.909L363.645 103.448C364.582 103.326 365.432 102.836 366.008 102.087C366.584 101.338 366.839 100.391 366.716 99.4542L365.102 87.0904ZM365.102 87.0904C364.736 84.2935 363.821 81.5966 362.409 79.155C360.996 76.7135 359.115 74.5756 356.872 72.8647C354.63 71.1537 352.071 69.9036 349.343 69.1862C346.615 68.4688 343.772 68.2984 340.978 68.6849C338.179 69.0289 335.475 69.9236 333.023 71.3175C330.57 72.7113 328.418 74.5767 326.69 76.8062C324.963 79.0356 323.693 81.585 322.955 84.3074C322.217 87.0298 322.025 89.8713 322.39 92.6682L324.005 105.032C324.127 105.969 324.617 106.819 325.366 107.395C326.115 107.971 327.062 108.225 327.999 108.103L331.531 107.642C332.468 107.519 333.318 107.03 333.894 106.281C334.47 105.532 334.725 104.585 334.602 103.648L333.449 94.8167C333.327 93.8799 332.837 93.03 332.088 92.454C331.339 91.878 330.392 91.6232 329.455 91.7456L322.39 92.6682" stroke="#A7BEE1" stroke-width="3.5625" stroke-linecap="round" stroke-linejoin="round"/>
<rect x="323.351" y="93.2676" width="10" height="14" transform="rotate(-7.44026 323.351 93.2676)" fill="#A7BEE1"/>
<rect x="355.082" y="89.1235" width="10" height="14" transform="rotate(-7.44026 355.082 89.1235)" fill="#A7BEE1"/>
<rect x="64.5149" y="188.587" width="108" height="108" rx="10" transform="rotate(-7.44026 64.5149 188.587)" fill="#E3ECF9"/>
<rect x="181.521" y="173.307" width="108" height="108" rx="10" transform="rotate(-7.44026 181.521 173.307)" fill="#E3ECF9"/>
<rect x="298.528" y="158.027" width="108" height="108" rx="10" transform="rotate(-7.44026 298.528 158.027)" fill="#E3ECF9"/>
<rect x="79.7952" y="305.594" width="108" height="108" rx="10" transform="rotate(-7.44026 79.7952 305.594)" fill="#E3ECF9"/>
<rect x="196.802" y="290.313" width="108" height="108" rx="10" transform="rotate(-7.44026 196.802 290.313)" fill="#E3ECF9"/>
<rect x="313.808" y="275.034" width="108" height="108" rx="10" transform="rotate(-7.44026 313.808 275.034)" fill="#E3ECF9"/>
</g>
<defs>
<clipPath id="clip0_93_14962">
<rect x="22.3291" y="50.8906" width="393" height="517" rx="20" transform="rotate(-7.44026 22.3291 50.8906)" fill="white"/>
</clipPath>
<clipPath id="clip1_93_14962">
<rect x="49.2349" y="71.5806" width="108" height="108" rx="10" transform="rotate(-7.44026 49.2349 71.5806)" fill="white"/>
</clipPath>
</defs>
</svg>
